<?xml version="1.0" encoding="utf-8" ?><svg xmlns="http://www.w3.org/2000/svg" xmlns:xlink="http://www.w3.org/1999/xlink" width="1024" height="1024" viewBox="0 0 1024 1024"><path fill="#f3f0e9" d="M0 0L1024 0L1024 1024L0 1024L0 0Z"/><path fill="#9db0cf" d="M321.887 231.463C321.084 230.599 311.223 226.502 307.777 222.296C302.731 216.138 299.828 209.705 300.097 201.524C300.334 194.294 303.648 186.62 309.028 181.892C321.919 170.564 334.926 178.449 349.764 173.458C353.911 172.063 356.74 170.994 360.739 169.199C366.89 166.439 373.57 160.657 380.417 161.354C383.394 161.658 386.131 162.919 387.855 165.352C390.103 168.527 391.148 174.063 390.308 177.824C388.252 187.026 379.894 190.066 373.399 194.394C374.204 197.264 375.259 201.476 376.294 204.146C379.707 205.786 386.457 208.242 387.64 211.464C386.825 213.683 385.257 214.257 383.225 215.194C381.597 215.941 379.956 216.659 378.302 217.348C382.142 234.833 376.659 244.666 357.753 245.427C356.337 250.361 354.52 258.207 352.175 262.488C356.643 262.373 364.762 264.587 368.626 266.8C371.138 267.919 374.479 269.342 376.576 271.103C392.594 278.049 401.597 297.039 410.434 310.97C418.267 323.319 426.164 335.638 433.97 348.005C443.761 352.135 453.726 356.999 463.536 361.244C466.853 362.679 478.211 367.55 480.94 369.243C475.939 372.801 465.738 401.881 461.603 408.528C460.407 410.45 455.751 421.148 455.052 423.554C452.779 422.022 442.705 417.988 439.683 416.746C430.297 412.89 420.49 408.225 410.981 404.859L410.431 405.166C410.952 411.547 412.494 420.279 413.454 426.761L419.219 465.831L439.953 606.251L452.783 692.068L456.206 715.519C456.508 717.605 457.436 724.922 457.937 726.426C457.054 727.761 457.531 727.598 455.853 727.875C449.451 728.931 441.242 728.99 434.993 730.14C435.847 736.047 436.835 741.934 437.957 747.796C436.253 748.154 434.529 748.564 432.8 748.733C433.278 752.566 433.696 766.415 433.446 769.985C432.836 769.847 432.46 769.738 431.851 769.556C414.211 769.619 395.632 766.983 378.518 766.823C378.005 766.755 377.544 766.666 377.036 766.573L375.816 754.371L375.053 753.788C372.376 753.586 370.398 754.164 367.772 754.705C366.692 748.76 365.738 742.636 364.332 736.779C361.451 737.13 354.054 738.207 351.403 737.604L351.044 736.423C348.734 716.353 346.772 696.244 345.161 676.106C343.795 658.064 341.641 641.228 340.937 622.898C337.307 629.104 331.398 643.433 328.277 650.476L307.833 696.703C304.487 704.342 300.848 713.584 297.286 720.956L296.704 720.901C293.561 720.63 286.719 717.372 283.717 715.847C281.519 722.964 275.879 733.8 273.023 742.03C270.982 741.175 268.46 739.897 266.339 739.761L265.762 740.007C263.799 744.498 260.766 748.688 258.957 753.404C257.941 753.295 257.786 753.318 257.174 752.536C256.197 752.322 256.816 752.541 255.971 752.033C240.269 742.581 222.638 735.073 206.665 726.232C205.78 725.817 205.699 725.75 204.825 725.485C205.914 723.655 206.727 722.267 207.553 720.256L208.273 718.499C202.944 716.187 197.483 714.361 192.003 712.439C194.273 707.512 208.787 684.699 208.471 681.84L206.653 680.843C203.591 679.553 193.177 675.416 191.467 673.722L191.583 672.938C198.175 660.476 205.235 648.969 212.245 636.764L232.344 600.962C235.867 594.81 246.991 577.383 249.156 571.504C251.339 565.573 254.151 544.149 255.258 536.959L262.392 487.871C264.121 475.996 266.647 460.247 267.467 448.349C257.8 440.137 247.408 430.492 237.835 422.747C235.081 424.867 233.003 427.126 229.932 429.228L228.879 428.908C227.476 426.905 220.105 419.632 218.023 417.509L193.673 392.609C188.744 387.644 179.842 379.263 176.003 373.815C173.231 369.83 171.207 365.374 170.028 360.665C167.428 350.593 168.968 339.9 174.305 330.971C180.94 320.034 189.575 316.369 200.162 310.322L228.74 293.967C236.94 289.238 245.102 284.444 253.224 279.584C266.703 271.591 270.223 269.745 285.478 265.954C286.714 265.637 287.581 265.59 288.841 265.447C291.528 264.82 300.645 264.185 303.836 263.889L306.269 263.501C308.29 262.975 311.207 263.208 313.952 262.636C313.889 258.606 320.352 236.947 321.887 231.463Z"/><path fill="#16202b" d="M285.478 265.954C286.714 265.637 287.581 265.59 288.841 265.447C300.851 269.922 308.481 274.774 314.101 286.975C315.88 290.89 317.096 295.036 317.712 299.292C318.828 306.79 318.657 335.088 317.642 342.554C317.097 346.404 316.122 350.18 314.736 353.812C310.141 365.961 301.424 375.424 289.518 380.656C283.75 383.234 277.56 384.742 271.252 385.106L275.596 389.276L271.375 392.769L281.035 401.305C290.38 398.806 297.09 395.574 306.701 399.315C316.343 403.068 320.308 402.456 313.433 413.009C307.446 413.242 303.206 412.316 297.417 411.816C302.781 416.556 308.315 421.894 313.72 426.411C313.879 423.11 313.697 421.626 314.701 418.512C315.317 416.615 316.043 414.65 316.706 412.759C325.624 399.517 341.182 402.454 350.152 414.148C359.959 399.154 383.549 401.136 387.178 419.902C387.617 422.17 387.793 424.611 387.991 426.921C389.924 427.155 394.052 427.54 395.759 428.027C400.729 432.429 400.02 435.558 398.212 441.604L396.438 445.943C395.207 448.727 393.974 451.495 392.514 454.173C391.929 455.55 391.906 455.54 391.96 456.989C391.959 457.478 391.959 457.967 391.958 458.456C379.442 480.001 368.029 502.225 355.709 523.875C337.094 523.862 317.592 524.072 299.019 523.683C299.016 508.079 299.405 490.594 298.884 475.142C294.841 471.77 291.256 468.479 287.396 464.916L287.237 465.63C285.529 473.433 284.139 486.593 282.95 494.999C280.596 511.945 277.989 528.856 275.13 545.725C274.538 549.264 273.129 561.656 272.377 563.961C269.753 571.997 261.799 583.476 257.34 591.25C247.386 608.999 237.222 626.629 226.852 644.138C220.915 654.297 212.156 668.508 207.062 678.53C207.049 680.04 207.285 679.706 206.653 680.843C203.591 679.553 193.177 675.416 191.467 673.722L191.583 672.938C198.175 660.476 205.235 648.969 212.245 636.764L232.344 600.962C235.867 594.81 246.991 577.383 249.156 571.504C251.339 565.573 254.151 544.149 255.258 536.959L262.392 487.871C264.121 475.996 266.647 460.247 267.467 448.349C257.8 440.137 247.408 430.492 237.835 422.747C235.081 424.867 233.003 427.126 229.932 429.228L228.879 428.908C227.476 426.905 220.105 419.632 218.023 417.509L193.673 392.609C188.744 387.644 179.842 379.263 176.003 373.815C173.231 369.83 171.207 365.374 170.028 360.665C167.428 350.593 168.968 339.9 174.305 330.971C180.94 320.034 189.575 316.369 200.162 310.322L228.74 293.967C236.94 289.238 245.102 284.444 253.224 279.584C266.703 271.591 270.223 269.745 285.478 265.954Z"/><path fill="#35507f" d="M228.879 428.908C227.476 426.905 220.105 419.632 218.023 417.509L193.673 392.609C188.744 387.644 179.842 379.263 176.003 373.815C173.231 369.83 171.207 365.374 170.028 360.665C167.428 350.593 168.968 339.9 174.305 330.971C180.94 320.034 189.575 316.369 200.162 310.322L228.74 293.967C236.94 289.238 245.102 284.444 253.224 279.584C266.703 271.591 270.223 269.745 285.478 265.954C288.082 267.342 291.357 268.288 294.219 269.558C303.837 273.826 310.766 281.999 314.181 291.879C317.48 301.605 317.242 333.836 315.701 343.455C314.947 348.267 313.474 352.939 311.331 357.313C303.137 373.89 288.258 382.357 270.092 383.291C268.219 381.498 265.972 379.48 264.329 377.518C265.304 370.603 266.929 349.299 266.972 342.221C275.702 336.441 291.888 330.846 299.274 324.804L299.197 324.153C295.325 324.453 248.29 349.794 241.155 353.297C238.771 350.68 231.42 342 229.005 340.907L228.266 341.065C228.5 342.782 269.318 385.635 273.061 388.776C267.347 393.882 230.07 425.872 228.879 428.908Z"/><path fill="#9db0cf" d="M267.467 448.349C273.04 452.964 280.349 460.015 285.734 463.892C283.451 475.044 282.047 487.997 280.501 499.42C278.591 513.427 276.497 527.409 274.22 541.36C273.62 545.146 271.578 561.929 270.381 564.485C265.864 574.131 258.453 585.86 253.017 595.294C237.162 623.182 221.021 650.905 204.594 678.459C201.486 676.862 194.941 673.207 191.583 672.938C198.175 660.476 205.235 648.969 212.245 636.764L232.344 600.962C235.867 594.81 246.991 577.383 249.156 571.504C251.339 565.573 254.151 544.149 255.258 536.959L262.392 487.871C264.121 475.996 266.647 460.247 267.467 448.349Z"/><path fill="#9db0cf" d="M316.706 412.759C325.624 399.517 341.182 402.454 350.152 414.148C359.959 399.154 383.549 401.136 387.178 419.902C387.617 422.17 387.793 424.611 387.991 426.921C389.924 427.155 394.052 427.54 395.759 428.027C400.729 432.429 400.02 435.558 398.212 441.604L396.438 445.943C394.697 444.657 395.707 445.756 393.794 446.352C395.71 442.086 396.236 440.449 396.849 435.985L396.24 431.813C387.984 424.166 377.806 440.703 374.841 447.075C374.299 443.469 373.978 442.051 372.896 438.57C401.263 422.797 368.433 393.623 353.987 416.813C352.676 418.919 353.349 424.589 352 426.557C350.363 426.966 350.375 427.166 348.811 426.851C348.041 418.477 345.155 410.515 335.881 408.546C332.013 407.74 327.983 408.537 324.714 410.756C320.011 413.97 318.482 417.871 317.601 423.1C318.103 426.312 318.228 427.761 318.968 431.104C317.26 429.613 315.342 427.974 313.72 426.411C313.879 423.11 313.697 421.626 314.701 418.512C315.317 416.615 316.043 414.65 316.706 412.759Z"/><path fill="#9db0cf" d="M314.701 418.512C315.592 420.208 315.139 420.986 314.955 422.971C314.937 423.167 315.002 428.074 316.355 427.206C317.46 426.496 316.696 421.293 317.215 420.812C317.259 420.821 317.304 420.829 317.348 420.837C317.306 421.873 317.254 422.131 317.601 423.1C318.103 426.312 318.228 427.761 318.968 431.104C317.26 429.613 315.342 427.974 313.72 426.411C313.879 423.11 313.697 421.626 314.701 418.512Z"/><path fill="#f3f0e9" d="M266.972 342.221C266.929 349.299 265.304 370.603 264.329 377.518C257.991 370.892 248.464 361.247 242.705 354.492C249.365 350.902 260.118 345.359 266.972 342.221Z"/><path fill="#9db0cf" d="M393.794 446.352C395.707 445.756 394.697 444.657 396.438 445.943C395.207 448.727 393.974 451.495 392.514 454.173C391.929 455.55 391.906 455.54 391.96 456.989C387.538 457.563 385.437 458.403 389.063 454.33C390.145 452.46 392.597 447.837 393.794 446.352Z"/><path fill="#9db0cf" d="M328.139 458.144C335.848 459.242 350.127 458.851 358.414 458.909C367.913 458.976 379.887 459.518 389.171 459.066C385.637 464.839 381.562 473.107 378.219 479.222L356.491 518.683L354.634 521.943L300.854 521.888C300.57 506.677 300.94 491.675 300.787 476.491C310.625 477.634 306.402 474.397 310.775 470.538C322.197 470.146 314.284 463.906 322.883 462.536C326.035 462.034 326.54 460.5 328.139 458.144Z"/><path fill="#f3f0e9" d="M270.144 393.847C271.29 394.284 278.842 402.062 280.354 403.553C291.426 400.78 297.805 397.332 309.533 401.697C312.018 402.621 313.831 403.564 314.908 405.884C314.517 417.821 300.499 406.366 295.353 411.741C297.098 416.87 331.201 441.7 331.359 446.203C331.466 449.246 329.378 451.42 327.465 453.515C323.896 450.307 303.256 432.093 300.088 431.306C306.837 440.438 320.206 446.584 325.585 456.35C327.148 459.187 321.752 462.993 319.391 460.959C310.992 453.722 302.534 446.511 294.031 439.356L293.195 438.766L292.663 439.161C294.108 444.926 316.715 456.897 316.772 464.492C316.771 465.725 316.249 466.9 315.334 467.727C309.382 473.132 289.632 447.193 284.77 447.265C284.776 450.974 307.317 465.164 308.075 470.807C308.396 474.581 303.275 476.576 300.578 474.134C282.394 457.671 260.808 442.041 243.461 424.95C251.234 408.924 257.579 405.334 270.144 393.847Z"/><path fill="#9db0cf" d="M329.648 410.611C341.299 409.498 346.504 416.015 346.521 427.193C341.748 429.719 339.382 431.848 335.306 435.341C322.039 439.764 310.085 418.811 329.648 410.611Z"/><path fill="#9db0cf" d="M349.012 435.169C352.326 434.782 357.363 434.28 359.995 436.424C368.701 443.517 367.881 449.469 362.935 457.058C361.173 457.144 359.656 457.157 357.897 457.147C354.534 457.123 346.953 457.458 344.142 456.81C339.045 455.634 338.876 446.043 340.827 442.428C343.43 437.604 344.508 437.069 349.012 435.169Z"/><path fill="#9db0cf" d="M366.385 410.088C369.667 409.898 372.031 409.866 375.002 411.555C378.206 413.371 380.52 416.427 381.402 420.003C383.142 427.196 379.315 433.698 372.491 436.439C372.161 436.572 371.797 436.294 371.561 436.114C366.209 429.858 362.622 428.659 355.004 426.358C352.459 425.59 354.814 418.617 356.044 416.993C359.274 412.731 361.221 411.316 366.385 410.088Z"/><path fill="#9db0cf" d="M351.675 428.561C361.489 427.973 371.675 434.868 372.848 445.003C373.31 448.999 373.075 453.199 372.732 457.203C369.976 457.303 367.474 457.298 364.733 457.301L364.981 456.942C371.987 446.971 367.543 437.777 356.955 433.268C341.214 431.04 333.954 443.105 340.688 457.037L334.095 456.956L333.971 456.118C331.54 440.309 335.53 431.998 351.675 428.561Z"/><path fill="#9db0cf" d="M392.451 431.61C400.53 434.131 386.884 453.674 384.803 457.471C382.51 457.5 380.172 457.474 377.875 457.471C371.464 457.444 378.521 443.278 380.114 440.801C383.616 435.353 386.158 432.823 392.451 431.61Z"/><path fill="#9db0cf" d="M324.846 436.323C325.523 436.44 333.883 437.964 333.774 437.813C333.807 438.457 332.72 440.575 332.396 441.342C332.234 441.672 332.119 442.149 331.715 442.249C330.625 441.448 326.342 437.583 324.846 436.323Z"/><path fill="#9db0cf" d="M331.767 451.392C332.614 456.134 332.671 456.593 328.634 456.391C327.476 454.527 330.251 452.961 331.767 451.392Z"/><path fill="#f3f0e9" d="M321.887 231.463C321.084 230.599 311.223 226.502 307.777 222.296C302.731 216.138 299.828 209.705 300.097 201.524C300.334 194.294 303.648 186.62 309.028 181.892C321.919 170.564 334.926 178.449 349.764 173.458C353.911 172.063 356.74 170.994 360.739 169.199C366.89 166.439 373.57 160.657 380.417 161.354C383.394 161.658 386.131 162.919 387.855 165.352C390.103 168.527 391.148 174.063 390.308 177.824C388.252 187.026 379.894 190.066 373.399 194.394C374.204 197.264 375.259 201.476 376.294 204.146C379.707 205.786 386.457 208.242 387.64 211.464C386.825 213.683 385.257 214.257 383.225 215.194C381.597 215.941 379.956 216.659 378.302 217.348C382.142 234.833 376.659 244.666 357.753 245.427C356.337 250.361 354.52 258.207 352.175 262.488C352.483 264.403 360.697 269.797 362.818 273.705C369.061 285.21 371.972 301.424 373.775 314.394L332.477 314.408C329.684 290.769 326.244 275.619 303.836 263.889L306.269 263.501C308.29 262.975 311.207 263.208 313.952 262.636C313.889 258.606 320.352 236.947 321.887 231.463Z"/><path fill="#16202b" d="M321.887 231.463C321.084 230.599 311.223 226.502 307.777 222.296C302.731 216.138 299.828 209.705 300.097 201.524C300.334 194.294 303.648 186.62 309.028 181.892C321.919 170.564 334.926 178.449 349.764 173.458C353.911 172.063 356.74 170.994 360.739 169.199C366.89 166.439 373.57 160.657 380.417 161.354C383.394 161.658 386.131 162.919 387.855 165.352C390.103 168.527 391.148 174.063 390.308 177.824C388.252 187.026 379.894 190.066 373.399 194.394L371.849 194.948C368.697 195.722 364.788 196.82 361.626 197.044C361.005 197.105 360.991 197.132 360.414 197.368C352.941 197.33 348.403 197.092 341.072 195.807C342.136 203.683 343.09 209.289 340.313 216.912C338.524 212.964 337.721 210.423 333.317 208.788C330.694 207.837 327.804 207.943 325.258 209.084C318.376 212.222 318.949 220.071 323.255 225.242C322.97 227.895 322.953 228.979 321.887 231.463Z"/><path fill="#35507f" d="M306.269 263.501C308.29 262.975 311.207 263.208 313.952 262.636C325.123 275.806 338.757 278.227 351.441 265.406C367.159 276.548 368.435 294.369 371.752 312.459L334.134 312.678C331.236 292.021 327.324 272.938 306.269 263.501Z"/><path fill="#16202b" d="M371.849 194.948L373.399 194.394C374.204 197.264 375.259 201.476 376.294 204.146C379.707 205.786 386.457 208.242 387.64 211.464C386.825 213.683 385.257 214.257 383.225 215.194C381.597 215.941 379.956 216.659 378.302 217.348C382.142 234.833 376.659 244.666 357.753 245.427C356.337 250.361 354.52 258.207 352.175 262.488C352.483 264.403 360.697 269.797 362.818 273.705C369.061 285.21 371.972 301.424 373.775 314.394L332.477 314.408C329.684 290.769 326.244 275.619 303.836 263.889L306.269 263.501C327.324 272.938 331.236 292.021 334.134 312.678L371.752 312.459C368.435 294.369 367.159 276.548 351.441 265.406C338.757 278.227 325.123 275.806 313.952 262.636C313.889 258.606 320.352 236.947 321.887 231.463C322.953 228.979 322.97 227.895 323.255 225.242C331.481 230.503 334.394 225.445 341.07 221.03C336.118 228.512 333.464 230.459 324.522 228.064C321.856 239.139 318.442 250.261 315.506 261.312C318.534 265.601 321.367 268.626 326.452 270.588C331.514 272.505 337.13 272.329 342.062 270.098C348.635 267.143 350.949 262.704 353.385 256.513C348.063 250.141 343.66 243.319 339.529 236.142C349.397 240.975 362.222 248.341 373.098 239.05C377.045 235.677 377.63 231.026 377.887 226.09C374.297 225.999 370.73 225.485 367.26 224.559C365.458 224.085 364.853 223.871 364.034 222.481L364.39 221.587C365.636 221.514 368.198 222.419 369.461 222.896C372.552 224.061 374.544 224.228 377.764 224.613C377.476 221.995 376.765 218.967 376.232 216.352C380.19 214.787 382.792 213.623 386.579 211.694C382.289 209.034 379.57 207.147 374.671 205.926L371.849 194.948Z"/><path fill="#16202b" d="M361.583 198.132C362.663 198.033 365.654 197.623 365.875 199.304C365.483 199.971 359.972 199.573 358.317 201.711C354.689 206.4 352.545 201.744 360.084 198.456C360.602 198.352 361.07 198.263 361.583 198.132Z"/><path fill="#e2ddd1" d="M360.414 197.368C360.991 197.132 361.005 197.105 361.626 197.044L361.583 198.132C361.07 198.263 360.602 198.352 360.084 198.456C360.197 198.094 360.306 197.731 360.414 197.368Z"/><path fill="#16202b" d="M361.251 206.309C367.616 206.776 366.8 211.014 364.2 215.803C360.014 214.827 359.64 209.746 361.251 206.309Z"/><path fill="#35507f" d="M433.97 348.005C443.761 352.135 453.726 356.999 463.536 361.244C466.853 362.679 478.211 367.55 480.94 369.243C475.939 372.801 465.738 401.881 461.603 408.528C460.407 410.45 455.751 421.148 455.052 423.554C452.779 422.022 442.705 417.988 439.683 416.746C430.297 412.89 420.49 408.225 410.981 404.859L410.431 405.166C408.604 403.584 406.925 390.53 406.346 387.498C404.856 379.701 403.088 371.809 401.913 363.978L403.096 365.595L403.709 364.067C405.341 363.557 406.436 361.072 407.631 359.588C411.523 354.757 414.73 352.548 420.467 350.28C422.461 351.917 422.32 351.432 422.972 353.895C424.01 353.132 425.524 352.131 426.446 351.353C427.92 350.632 428.94 350.121 430.491 349.537C432.126 348.939 432.573 348.99 433.97 348.005Z"/><path fill="#16202b" d="M403.709 364.067C405.341 363.557 406.436 361.072 407.631 359.588C411.523 354.757 414.73 352.548 420.467 350.28C422.461 351.917 422.32 351.432 422.972 353.895C406.317 369.075 407.367 384.486 410.981 404.859L410.431 405.166C408.604 403.584 406.925 390.53 406.346 387.498C404.856 379.701 403.088 371.809 401.913 363.978L403.096 365.595L403.709 364.067Z"/><path fill="#16202b" d="M206.653 680.843C207.285 679.706 207.049 680.04 207.062 678.53C210.67 682.111 275.229 709.396 284.87 714.602C284.357 715.015 284.141 715.336 283.717 715.847C281.519 722.964 275.879 733.8 273.023 742.03C270.982 741.175 268.46 739.897 266.339 739.761L265.762 740.007C263.799 744.498 260.766 748.688 258.957 753.404C257.941 753.295 257.786 753.318 257.174 752.536C256.197 752.322 256.816 752.541 255.971 752.033C240.269 742.581 222.638 735.073 206.665 726.232C205.78 725.817 205.699 725.75 204.825 725.485C205.914 723.655 206.727 722.267 207.553 720.256L208.273 718.499C202.944 716.187 197.483 714.361 192.003 712.439C194.273 707.512 208.787 684.699 208.471 681.84L206.653 680.843Z"/><path fill="#f3f0e9" d="M208.273 718.499C209.007 718.881 209.483 719.045 210.268 719.34C214.704 720.327 262.111 737.807 264.17 739.389C265.16 739.193 265.216 739.171 265.762 740.007C263.799 744.498 260.766 748.688 258.957 753.404C257.941 753.295 257.786 753.318 257.174 752.536C256.197 752.322 256.816 752.541 255.971 752.033C240.269 742.581 222.638 735.073 206.665 726.232C205.78 725.817 205.699 725.75 204.825 725.485C205.914 723.655 206.727 722.267 207.553 720.256L208.273 718.499Z"/><path fill="#16202b" d="M264.17 739.389C265.16 739.193 265.216 739.171 265.762 740.007C263.799 744.498 260.766 748.688 258.957 753.404C257.941 753.295 257.786 753.318 257.174 752.536C258.817 748.732 262.101 743.532 264.17 739.389Z"/><path fill="#16202b" d="M208.273 718.499C209.007 718.881 209.483 719.045 210.268 719.34C209.061 721.692 207.964 723.906 206.665 726.232C205.78 725.817 205.699 725.75 204.825 725.485C205.914 723.655 206.727 722.267 207.553 720.256L208.273 718.499Z"/><path fill="#16202b" d="M351.044 736.423C352.441 735.984 375.657 733.808 378.846 733.486C404.321 730.911 429.965 728.717 455.444 726.079C456.66 725.953 456.848 726.037 457.937 726.426C457.054 727.761 457.531 727.598 455.853 727.875C449.451 728.931 441.242 728.99 434.993 730.14C435.847 736.047 436.835 741.934 437.957 747.796C436.253 748.154 434.529 748.564 432.8 748.733C433.278 752.566 433.696 766.415 433.446 769.985C432.836 769.847 432.46 769.738 431.851 769.556C414.211 769.619 395.632 766.983 378.518 766.823C378.005 766.755 377.544 766.666 377.036 766.573L375.816 754.371L375.053 753.788C372.376 753.586 370.398 754.164 367.772 754.705C366.692 748.76 365.738 742.636 364.332 736.779C361.451 737.13 354.054 738.207 351.403 737.604L351.044 736.423Z"/><path fill="#f3f0e9" d="M431.321 749.788C431.801 749.114 431.947 748.754 432.8 748.733C433.278 752.566 433.696 766.415 433.446 769.985C432.836 769.847 432.46 769.738 431.851 769.556C414.211 769.619 395.632 766.983 378.518 766.823C378.005 766.755 377.544 766.666 377.036 766.573L375.816 754.371C376.359 753.55 376.395 753.733 377.306 753.995C377.803 753.638 378.427 753.248 379.324 753.175C396.384 751.777 413.52 750.295 430.599 749.233C430.839 749.418 431.08 749.603 431.321 749.788Z"/><path fill="#16202b" d="M431.321 749.788C431.801 749.114 431.947 748.754 432.8 748.733C433.278 752.566 433.696 766.415 433.446 769.985C432.836 769.847 432.46 769.738 431.851 769.556C431.731 762.965 431.554 756.375 431.321 749.788Z"/><path fill="#16202b" d="M375.816 754.371C376.359 753.55 376.395 753.733 377.306 753.995C377.654 758.226 378.367 762.66 378.518 766.823C378.005 766.755 377.544 766.666 377.036 766.573L375.816 754.371Z"/><path fill="#16202b" d="M340.937 622.898C341.209 618.555 349.583 597.893 351.571 593.109C361.603 568.973 370.113 543.609 380.075 519.53C381.061 520.116 381.415 520.225 382.498 520.645C379.562 534.834 375.575 550.157 372.16 564.329L352.754 644.389C351.614 649.084 346.531 673.838 345.161 676.106C343.795 658.064 341.641 641.228 340.937 622.898Z"/><path fill="#35507f" d="M376.576 271.103C392.594 278.049 401.597 297.039 410.434 310.97C418.267 323.319 426.164 335.638 433.97 348.005C432.573 348.99 432.126 348.939 430.491 349.537C428.94 350.121 427.92 350.632 426.446 351.353C425.524 352.131 424.01 353.132 422.972 353.895C422.32 351.432 422.461 351.917 420.467 350.28C414.73 352.548 411.523 354.757 407.631 359.588C406.436 361.072 405.341 363.557 403.709 364.067C401.006 351.564 398.51 339.017 396.219 326.433C393.464 311.828 391.357 296.779 385.147 283.156C383.112 278.693 378.982 275.078 376.576 271.103Z"/><path fill="#16202b" d="M425.041 348.817C425.289 350.042 425.768 350.294 426.446 351.353C425.524 352.131 424.01 353.132 422.972 353.895C422.32 351.432 422.461 351.917 420.467 350.28C421.996 349.677 423.433 349.196 425.041 348.817Z"/><path fill="#16202b" d="M425.041 348.817C426.806 348.467 428.082 348.121 429.899 347.936L430.491 349.537C428.94 350.121 427.92 350.632 426.446 351.353C425.768 350.294 425.289 350.042 425.041 348.817Z"/><path fill="#16202b" d="M429.899 347.936C431.509 347.897 432.36 347.888 433.97 348.005C432.573 348.99 432.126 348.939 430.491 349.537L429.899 347.936Z"/><path fill="#16202b" d="M368.626 266.8C371.138 267.919 374.479 269.342 376.576 271.103C378.982 275.078 383.112 278.693 385.147 283.156C391.357 296.779 393.464 311.828 396.219 326.433C398.51 339.017 401.006 351.564 403.709 364.067L403.096 365.595L401.913 363.978C400.246 354.783 398.038 344.674 396.051 335.172C392.078 316.877 390.739 298.499 382.178 281.552C378.95 275.161 370.916 270.785 368.626 266.8Z"/><path fill="#16202b" d="M380.075 519.53C384.634 505.943 390.52 492.716 395.434 479.244C395.722 478.454 396.7 475.604 397.832 475.567L397.826 475.614L398.41 476.16L398.425 476.13C398.331 478.088 395.625 483.573 394.742 485.929C390.248 497.929 385.605 508.173 382.498 520.645C381.415 520.225 381.061 520.116 380.075 519.53Z"/><path fill="#16202b" d="M284.87 714.602C287.935 715.998 295.388 718.618 297.286 720.956L296.704 720.901C293.561 720.63 286.719 717.372 283.717 715.847C284.141 715.336 284.357 715.015 284.87 714.602Z"/><path fill="#16202b" d="M332.473 342L389.513 342.213C389.605 358.21 391.753 368.551 381.192 380.92C366.315 394.711 341.334 391.536 334.124 370.73C331.515 363.203 332.417 350.356 332.473 342Z"/><path fill="#9db0cf" d="M334.495 343.942L387.524 343.995C387.749 357.772 389.643 368.761 379.964 379.54C374.359 384.639 367.869 387.422 360.245 387.398C353.218 387.414 346.487 384.569 341.602 379.518C332.45 369.999 334.361 356.451 334.495 343.942Z"/><path fill="#16202b" d="M326.588 317.729C327.849 317.278 329.256 317.555 330.252 318.45C331.248 319.346 331.673 320.715 331.359 322.016C331.046 323.318 330.044 324.344 328.749 324.687C326.86 325.188 324.912 324.111 324.332 322.244C323.752 320.378 324.747 318.386 326.588 317.729Z"/><path fill="#9db0cf" d="M327.516 321.202C327.638 321.119 327.985 320.799 328.225 320.802C328.261 321.066 328.029 321.496 327.955 321.689C327.834 321.791 327.637 322.04 327.433 322.049C327.415 321.756 327.463 321.51 327.516 321.202Z"/><path fill="#16202b" d="M380.541 318.154C381.743 317.686 383.104 317.9 384.104 318.715C385.104 319.53 385.589 320.82 385.372 322.091C385.156 323.363 384.273 324.42 383.06 324.859C381.216 325.526 379.178 324.586 378.489 322.75C377.8 320.915 378.714 318.866 380.541 318.154Z"/><path fill="#9db0cf" d="M381.913 320.655C383.475 319.959 382.878 321.356 382.56 322.241C382.253 322.457 381.871 322.896 381.529 322.55C381.36 321.862 381.664 321.315 381.913 320.655Z"/><path fill="#9db0cf" d="M744.508 269.124L745.881 269.256C753.554 270.123 759.282 270.186 766.69 272.741C804.947 285.939 803.177 320.011 806.88 352.413L816.363 438.608C817.675 450.269 818.831 464.304 820.581 475.653L807.552 475.714C807.382 486.49 806.999 497.543 806.989 508.282C815.702 507.943 820.941 507.992 821.372 518.603C821.54 522.753 821.503 527.52 821.998 531.615C828.343 530.955 849.16 527.349 853.739 531.057C855.106 532.165 856.124 533.833 856.569 535.526C858.543 543.029 858.709 555.557 859.443 563.606C860.963 580.272 863.002 596.957 863.966 613.665C864.133 616.559 864.078 620.435 861.68 622.544C859.056 624.852 819.565 628.405 813.245 628.564C816.961 649.148 823.757 673.149 828.53 693.983C831.592 707.372 834.733 720.743 837.955 734.095C839.16 739.158 841.579 750.463 843.302 755.079C843.203 755.384 842.981 756.448 842.476 756.455C832.405 756.587 822.29 756.464 812.207 756.501C808.172 756.516 804.08 756.546 800.052 756.397L798.81 757.36L798.19 757.479C796.665 761.86 798.326 767.959 795.523 770.001C786.562 765.881 777.503 761.144 768.329 757.536C764.835 756.161 761.003 756.394 757.267 756.4C754.951 755.916 747.526 755.943 744.992 755.917L744.278 755.813C743.476 755.673 743.25 755.733 742.58 756.188C740.167 756.577 720.69 756.56 718.398 756.063C717.445 753.055 715.222 727.158 714.772 723.765C713.247 712.274 700.818 595.018 699.981 593.661C699.242 590.707 699.448 584.593 699.45 581.267L698.839 578.62L698.37 578.571C690.934 609.542 685.131 645.813 678.79 677.483L668.584 728.008C666.658 737.448 663.869 749.487 662.681 758.905C659.58 760.626 642.007 755.286 637.088 754.242L632.1 769.644C631.673 770.463 631.265 771.291 630.875 772.128C630.368 772.075 629.911 772.024 629.4 771.996C627.372 771.366 624.872 770.86 622.747 770.557C613.164 769.191 603.744 766.786 594.246 765.065L583.994 763.106C582.691 762.85 581.407 762.561 580.115 762.319L578.146 762.046C580.051 754.832 582.411 747.485 584.613 740.333C567.534 735.758 550.363 731.439 533.32 726.757C533.049 726.439 532.778 726.121 532.506 725.802C535.803 715.173 541.621 701.322 545.753 690.709L567.769 633.996L622.044 492.075C633.019 463.416 649.244 424.436 655.395 395.112C656.735 393.336 659.471 384.239 658.927 382.052L657.621 381.811C656.916 375.827 667.78 339.834 669.246 330.901C672.754 309.524 680.625 290.147 690.802 271C691.809 271.017 692.63 270.45 693.637 269.977C693.379 274.103 692.679 277.937 691.911 281.994L689.916 292.244C689.533 294.166 689.128 296.081 688.701 297.995C694.716 292.213 701.826 286.39 707.117 280.037C707.23 279.9 706.695 277.664 706.649 277.442L707.345 277.263C709.651 283.064 716.985 295.372 720.371 300.924C728.841 290.579 735.637 279.25 744.508 269.124Z"/><path fill="#16202b" d="M744.508 269.124L745.881 269.256C753.554 270.123 759.282 270.186 766.69 272.741C804.947 285.939 803.177 320.011 806.88 352.413L816.363 438.608C817.675 450.269 818.831 464.304 820.581 475.653L807.552 475.714C807.382 486.49 806.999 497.543 806.989 508.282C815.702 507.943 820.941 507.992 821.372 518.603C821.54 522.753 821.503 527.52 821.998 531.615C828.343 530.955 849.16 527.349 853.739 531.057C855.106 532.165 856.124 533.833 856.569 535.526C858.543 543.029 858.709 555.557 859.443 563.606C860.963 580.272 863.002 596.957 863.966 613.665C864.133 616.559 864.078 620.435 861.68 622.544C859.056 624.852 819.565 628.405 813.245 628.564C791.706 630.813 770.153 632.922 748.587 634.892C739.731 635.7 730.662 637.065 721.802 637.219C716.769 637.307 714.931 632.225 714.482 628.145C712.643 610.93 711.152 593.848 709.748 576.572C708.975 567.062 706.73 556.516 707.3 547.001C707.477 544.045 709.551 542.381 711.798 540.732C719.199 539.535 730.684 538.894 738.423 538.224C737.674 531.774 736.084 522.296 737.036 516.039C737.375 513.81 739.07 512.652 740.834 511.494C747.736 489.413 748.847 492.23 763.083 475.934C757.525 475.341 750.456 475.602 744.791 475.756L749.466 381.429L748.038 381.073C743.814 380.687 736.318 380.835 732.003 380.829L704.048 380.809C692.147 380.797 670.335 380.04 659.168 380.95C658.304 381.701 658.691 381.525 657.621 381.811C656.916 375.827 667.78 339.834 669.246 330.901C672.754 309.524 680.625 290.147 690.802 271C691.809 271.017 692.63 270.45 693.637 269.977C693.379 274.103 692.679 277.937 691.911 281.994L689.916 292.244C689.533 294.166 689.128 296.081 688.701 297.995C694.716 292.213 701.826 286.39 707.117 280.037C707.23 279.9 706.695 277.664 706.649 277.442L707.345 277.263C709.651 283.064 716.985 295.372 720.371 300.924C728.841 290.579 735.637 279.25 744.508 269.124Z"/><path fill="#f3f0e9" d="M744.508 269.124L745.881 269.256C739.684 278.941 727.504 294.699 720.202 303.752C716.008 296.639 711.562 289.319 707.699 282.052C700.643 289.257 693.383 296.26 685.928 303.051L690.767 278.961C690.394 277.7 690.293 277.342 689.764 276.144C687.42 281.185 679.754 296.889 678.48 301.425C674.72 314.819 671.034 330.611 667.899 344.308C665.916 352.975 660.053 372.995 659.168 380.95C658.304 381.701 658.691 381.525 657.621 381.811C656.916 375.827 667.78 339.834 669.246 330.901C672.754 309.524 680.625 290.147 690.802 271C691.809 271.017 692.63 270.45 693.637 269.977C693.379 274.103 692.679 277.937 691.911 281.994L689.916 292.244C689.533 294.166 689.128 296.081 688.701 297.995C694.716 292.213 701.826 286.39 707.117 280.037C707.23 279.9 706.695 277.664 706.649 277.442L707.345 277.263C709.651 283.064 716.985 295.372 720.371 300.924C728.841 290.579 735.637 279.25 744.508 269.124Z"/><path fill="#16202b" d="M690.103 275.174L691.319 275.64C691.081 276.803 690.926 277.786 690.767 278.961C690.394 277.7 690.293 277.342 689.764 276.144L690.103 275.174Z"/><path fill="#5b636d" d="M690.103 275.174C690.285 274.822 690.877 273.447 691.299 273.283C691.803 273.5 691.367 275.29 691.319 275.64L690.103 275.174Z"/><path fill="#f3f0e9" d="M748.038 381.073C748.314 373.304 749.925 327.759 751.885 323.557C753.418 327.218 749.924 373.776 749.466 381.429L748.038 381.073Z"/><path fill="#f3f0e9" d="M765.571 475.734L805.498 475.716C805.464 487.603 804.4 505.544 804.944 516.367C806.774 516.83 805.717 516.6 806.487 517.874L807.387 517.939C807.544 517.948 809.011 518.015 809.043 518.344C809.479 522.789 809.534 527.735 809.373 532.206C809.352 532.789 806.159 532.953 805.731 532.981C805.05 533.126 804.644 533.445 804.12 532.91C801.713 533.323 798.674 534.415 796.704 532.695C795.974 533.771 795.483 533.726 794.796 532.644C792.936 534.674 787.609 534.973 785.134 533.876C784.128 533.786 784.107 533.796 783.053 533.914C781.015 535.115 776.353 535.159 774.026 534.615C773.549 534.838 769.391 534.801 768.571 534.849C766.561 535.818 766.682 535.807 764.462 535.766C763.138 535.895 762.861 535.929 761.535 535.867C757.582 536.369 753.741 536.48 749.76 536.959L749 519.058C752.689 518.757 755.614 518.555 759.308 518.471C759.173 516.187 760.985 511.376 759.365 509.5C757.864 509.058 757.859 509.028 756.266 508.972C755.094 509.303 755.097 509.162 754.127 508.445C752.679 510.627 751.095 513.622 748.723 514.502C741.037 514.227 745.35 504.558 746.371 501.28C750.022 489.554 758.533 484.745 765.571 475.734Z"/><path fill="#9db0cf" d="M749 519.058C752.689 518.757 755.614 518.555 759.308 518.471C758.855 521.871 759.185 525.328 759.028 528.723C758.855 532.492 759.197 533.107 761.535 535.867C757.582 536.369 753.741 536.48 749.76 536.959L749 519.058Z"/><path fill="#16202b" d="M754.127 508.445C755.233 506.515 757.902 500.747 759.992 500.141C760.268 500.061 760.642 500.023 760.89 500.21C761.274 500.499 761.259 501.603 761.249 501.992C761.119 507.503 758.809 530.281 761.891 533.593C762.459 534.204 763.113 534.667 763.761 535.186C763.997 535.376 764.228 535.573 764.462 535.766C763.138 535.895 762.861 535.929 761.535 535.867C759.197 533.107 758.855 532.492 759.028 528.723C759.185 525.328 758.855 521.871 759.308 518.471C759.173 516.187 760.985 511.376 759.365 509.5C757.864 509.058 757.859 509.028 756.266 508.972C755.094 509.303 755.097 509.162 754.127 508.445Z"/><path fill="#f3f0e9" d="M756.266 508.972L758.06 505.675C758.273 505.286 758.353 505.146 758.724 504.952C759.319 505.233 759.282 508.788 759.365 509.5C757.864 509.058 757.859 509.028 756.266 508.972Z"/><path fill="#f3f0e9" d="M806.487 517.874L807.387 517.939C807.544 517.948 809.011 518.015 809.043 518.344C809.479 522.789 809.534 527.735 809.373 532.206C809.352 532.789 806.159 532.953 805.731 532.981L805.874 532.344C806.855 528.133 806.656 522.245 806.487 517.874Z"/><path fill="#16202b" d="M771.893 531.955L771.905 522.752C771.915 520.293 773.204 517.255 773.529 520.746C773.949 525.26 773.09 529.718 774.026 534.615C773.549 534.838 769.391 534.801 768.571 534.849C769.689 533.863 770.781 532.98 771.893 531.955Z"/><path fill="#16202b" d="M804.944 516.367C806.774 516.83 805.717 516.6 806.487 517.874C806.656 522.245 806.855 528.133 805.874 532.344L805.731 532.981C805.05 533.126 804.644 533.445 804.12 532.91C804.994 527.741 804.769 521.684 804.944 516.367Z"/><path fill="#16202b" d="M783.053 533.914C783 531.48 782.469 519.98 784.512 519.499C785.12 520.055 784.902 531.44 785.134 533.876C784.128 533.786 784.107 533.796 783.053 533.914Z"/><path fill="#16202b" d="M794.796 532.644C794.826 531.772 794.937 526.071 794.855 525.89C793.659 523.277 796.559 514.924 796.518 521.75C796.477 525.399 796.539 529.049 796.704 532.695C795.974 533.771 795.483 533.726 794.796 532.644Z"/><path fill="#f3f0e9" d="M586.365 740.793C607.525 746.518 601.478 742.774 617.563 757.231C621.22 760.557 625.002 763.744 628.901 766.784C629.514 767.256 630.061 767.737 630.64 768.247C631.121 768.711 631.608 769.193 632.1 769.644C631.673 770.463 631.265 771.291 630.875 772.128C630.368 772.075 629.911 772.024 629.4 771.996C627.372 771.366 624.872 770.86 622.747 770.557C613.164 769.191 603.744 766.786 594.246 765.065L583.994 763.106C582.691 762.85 581.407 762.561 580.115 762.319L580.516 760.502C581.961 754.185 584.451 747.02 586.365 740.793Z"/><path fill="#16202b" d="M630.64 768.247C631.121 768.711 631.608 769.193 632.1 769.644C631.673 770.463 631.265 771.291 630.875 772.128C630.368 772.075 629.911 772.024 629.4 771.996C629.825 770.477 630.038 769.705 630.64 768.247Z"/><defs><linearGradient id="gradient_0" gradientUnits="userSpaceOnUse" x1="588.22601" y1="710.75452" x2="606.27063" y2="775.52838"><stop offset="0" stop-color="black"/><stop offset="1" stop-color="#16202b"/></linearGradient></defs><path fill="url(#gradient_0)" d="M532.506 725.802C534.758 725.615 661.054 757.806 662.681 758.905C659.58 760.626 642.007 755.286 637.088 754.242L632.1 769.644C631.608 769.193 631.121 768.711 630.64 768.247C630.061 767.737 629.514 767.256 628.901 766.784C625.002 763.744 621.22 760.557 617.563 757.231C601.478 742.774 607.525 746.518 586.365 740.793C584.451 747.02 581.961 754.185 580.516 760.502L580.115 762.319L578.146 762.046C580.051 754.832 582.411 747.485 584.613 740.333C567.534 735.758 550.363 731.439 533.32 726.757C533.049 726.439 532.778 726.121 532.506 725.802Z"/><defs><linearGradient id="gradient_1" gradientUnits="userSpaceOnUse" x1="745.51282" y1="763.58496" x2="799.26483" y2="760.17542"><stop offset="0" stop-color="#16202b"/><stop offset="1" stop-color="#16202b"/></linearGradient></defs><path fill="url(#gradient_1)" d="M745 754.911L785.571 754.737C787.047 754.739 797.471 754.68 798.391 754.91C798.997 755.431 799.478 755.851 800.052 756.397L798.81 757.36L798.19 757.479C796.665 761.86 798.326 767.959 795.523 770.001C786.562 765.881 777.503 761.144 768.329 757.536C764.835 756.161 761.003 756.394 757.267 756.4C754.951 755.916 747.526 755.943 744.992 755.917L745 754.911Z"/><path fill="#16202b" d="M699.45 581.267C698.785 559.353 699.876 543.49 694.469 521.992C691.788 511.334 674.615 437.654 675.287 436.059L676.098 436.337C678.4 443.432 680.132 451.816 681.821 459.159L689.697 493.394L696.072 520.729C696.847 524.058 699.469 534.469 699.64 537.512C700.366 550.385 700.472 563.399 700.864 576.363C700.98 580.207 701.537 589.718 700.256 593.275C700.165 593.404 700.073 593.533 699.981 593.661C699.242 590.707 699.448 584.593 699.45 581.267Z"/><path fill="#16202b" d="M843.302 755.079C843.203 755.384 842.981 756.448 842.476 756.455C832.405 756.587 822.29 756.464 812.207 756.501C808.172 756.516 804.08 756.546 800.052 756.397C799.478 755.851 798.997 755.431 798.391 754.91L827.337 754.792C831.385 754.77 839.753 754.379 843.302 755.079Z"/><path fill="#16202b" d="M718.398 756.063C718.513 755.608 718.549 755.092 718.858 754.721C719.99 754.362 742.217 754.873 745 754.911L744.992 755.917L744.278 755.813C743.476 755.673 743.25 755.733 742.58 756.188C740.167 756.577 720.69 756.56 718.398 756.063Z"/><path fill="#16202b" d="M742.58 756.188C743.25 755.733 743.476 755.673 744.278 755.813L744.992 755.917C747.526 755.943 754.951 755.916 757.267 756.4C761.003 756.394 764.835 756.161 768.329 757.536C777.503 761.144 786.562 765.881 795.523 770.001C798.326 767.959 796.665 761.86 798.19 757.479L798.81 757.36C798.968 761.34 797.318 767.723 798.294 771.154C799.47 771.655 799.646 771.563 800.949 771.624C802.559 774.37 799.656 792.193 800.159 797.181C800.98 805.314 802.27 813.417 803.45 821.48C805.29 834.94 807.407 848.36 809.8 861.733C798.478 861.442 783.925 862.092 773.248 861.387C772.961 860.816 772.68 860.308 772.371 859.75L771.894 861.011C770.464 862.015 750.713 861.502 747.811 861.491C724.505 861.324 701.199 861.286 677.893 861.38C679.006 852.117 680.7 844.68 686.176 836.82C693.364 826.502 705.208 820.371 717.569 818.984C721.763 818.513 725.87 819.133 730.077 818.428C731.794 816.803 732.778 805.208 733.363 801.557C733.499 799.717 733.565 797.984 733.737 796.132L732.263 794.999C730.089 798.069 727.693 802.142 724.183 803.703C717.217 806.801 713.138 800.389 716.601 794.293C720.977 786.589 727.96 783.496 735.87 780.992C735.826 778.441 735.407 776.775 737.033 775.062C738.458 775.05 738.835 775.148 740.18 774.658C742.279 772.305 742.41 759.87 742.58 756.188Z"/><path fill="#f3f0e9" d="M735.87 780.992C738.467 783.768 740.285 784.604 744.255 785.632C747.253 786.409 751.675 777.799 752.423 784.03C752.561 785.186 746.761 786.992 745.517 787.528C754.094 793.077 757.576 792.667 746.735 798.635C756.651 805.252 755.695 803.747 746.513 809.191C747.651 809.963 757.582 814.708 753.025 815.437C752.445 815.53 745.42 810.666 744.377 809.913C742.66 811.148 734.995 817.248 733.138 815.954C731.52 814.828 740.727 810.1 742.204 809.001C740.546 807.9 733.05 804.495 734.976 802.339L733.363 801.557C733.499 799.717 733.565 797.984 733.737 796.132L732.263 794.999C730.089 798.069 727.693 802.142 724.183 803.703C717.217 806.801 713.138 800.389 716.601 794.293C720.977 786.589 727.96 783.496 735.87 780.992Z"/><path fill="#16202b" d="M735.87 780.992C734.593 784.653 738.341 785.983 741.131 787.846L741.22 787.781C740.771 788.239 735.908 791.513 735.118 791.931L734.231 791.339C734.193 791.662 734.156 791.986 734.118 792.31C733.562 793.042 733.023 793.724 732.513 794.488C732.429 794.659 732.346 794.829 732.263 794.999C730.089 798.069 727.693 802.142 724.183 803.703C717.217 806.801 713.138 800.389 716.601 794.293C720.977 786.589 727.96 783.496 735.87 780.992Z"/><path fill="#5b636d" d="M732.513 794.488L732.754 793.746C733.025 792.888 733.191 791.174 734.231 791.339C734.193 791.662 734.156 791.986 734.118 792.31C733.562 793.042 733.023 793.724 732.513 794.488Z"/><path fill="#fbf9f3" d="M733.349 783.455C737.906 784.27 728.601 797.696 726.985 799.236C723.689 802.374 722.831 802.601 718.665 802.676C713.374 793.436 726.575 786.566 733.349 783.455Z"/><path fill="#16202b" d="M734.231 791.339L735.118 791.931L735.385 792.662C736.432 795.727 739.894 796.697 742.678 798.202C739.966 799.54 737.529 801.12 734.976 802.339L733.363 801.557C733.499 799.717 733.565 797.984 733.737 796.132L732.263 794.999C732.346 794.829 732.429 794.659 732.513 794.488C733.023 793.724 733.562 793.042 734.118 792.31C734.156 791.986 734.193 791.662 734.231 791.339Z"/><path fill="#fbf9f3" d="M734.118 792.31C734.016 793.626 733.959 794.831 733.737 796.132L732.263 794.999C732.346 794.829 732.429 794.659 732.513 794.488C733.023 793.724 733.562 793.042 734.118 792.31Z"/><path fill="#16202b" d="M744.848 799.46C745.91 799.711 749.813 803.072 751.094 804.021C749.151 805.174 746.227 806.804 744.446 807.978L737.275 803.635C739.511 802.454 742.706 800.747 744.848 799.46Z"/><path fill="#16202b" d="M743.242 788.908C744.971 789.237 748.864 792.164 750.548 793.279C748.34 794.878 747.098 795.776 744.749 797.175C742.918 797.391 739.257 793.962 737.803 792.734C739.672 791.332 741.297 790.194 743.242 788.908Z"/><path fill="#f3f0e9" d="M757.267 756.4C761.003 756.394 764.835 756.161 768.329 757.536C777.503 761.144 786.562 765.881 795.523 770.001L795.698 771.312C793.461 771.938 783.227 772.474 780.583 772.63C768.218 773.317 755.85 773.939 743.478 774.495C743.32 768.269 743.985 762.642 744.599 756.471L757.267 756.4Z"/><path fill="#f3f0e9" d="M772.371 859.75C772.736 854.225 774.41 848.083 775.064 842.498C775.578 838.114 778.132 838.031 776.682 843.783C775.36 849.03 775.436 856.178 773.248 861.387C772.961 860.816 772.68 860.308 772.371 859.75Z"/><path fill="#16202b" d="M369.617 860.508C371.12 848.99 371.894 835.858 373.018 824.118C373.472 814.924 375.366 805.005 375.345 795.848C375.324 786.442 372.718 776.641 373.09 767.057C374.576 766.216 375.024 766.557 377.036 766.573C377.544 766.666 378.005 766.755 378.518 766.823C395.632 766.983 414.211 769.619 431.851 769.556C432.46 769.738 432.836 769.847 433.446 769.985C435.734 770.074 438.2 770.22 440.474 770.19C445.579 771.068 441.95 774.735 444.025 779.228C450.7 780.933 456.166 784.457 460.396 790.517C463.94 795.594 463.159 804.202 455.234 802.101C450.995 800.978 447.541 796.069 444.911 792.525C445.12 795.588 445.469 797.627 445.594 800.906C445.699 801.373 445.8 801.84 445.898 802.308C446.322 804.586 446.762 806.844 447.222 809.116C447.58 811.443 447.859 813.78 448.223 816.132L448.752 816.949C452.233 816.986 455.992 816.632 459.402 816.946C484.567 819.262 499.371 835.859 499.613 860.509L436.79 860.55C430.902 860.556 411.888 860.953 407.154 860.387C406.665 860.374 406.227 860.355 405.737 860.371C398.326 861.107 378.126 860.534 369.617 860.508Z"/><path fill="#f3f0e9" d="M440.474 770.19C445.579 771.068 441.95 774.735 444.025 779.228C450.7 780.933 456.166 784.457 460.396 790.517C463.94 795.594 463.159 804.202 455.234 802.101C450.995 800.978 447.541 796.069 444.911 792.525C445.12 795.588 445.469 797.627 445.594 800.906C445.699 801.373 445.8 801.84 445.898 802.308C446.322 804.586 446.762 806.844 447.222 809.116C447.58 811.443 447.859 813.78 448.223 816.132C447.393 815.777 446.885 815.504 446 815.328C442.016 813.618 437.26 811.125 433.482 808.892C432.204 809.687 422.914 816.354 424.985 811.751C424.992 811.736 429.939 808.668 430.872 807.992L431.318 807.664C421.059 801.533 423.373 802.56 430.976 797.669L431.781 797.142C430.338 796.333 426.536 794.673 425.791 793.966C423.749 792.03 424.593 790.72 426.689 789.818C427.525 789.458 431.443 786.898 431.188 786.07C430.56 784.036 425.683 784.402 425.222 782.512C425.022 781.56 427.293 778.687 428.274 780.686C429.323 782.822 431.649 783.747 433.642 784.962C436.192 783.432 439.267 781.566 441.471 779.581C441.534 778.152 442.314 778.256 442.312 776.776C442.307 773.374 442.244 772.756 440.474 770.19Z"/><path fill="#fbf9f3" d="M444.025 779.228C450.7 780.933 456.166 784.457 460.396 790.517C463.94 795.594 463.159 804.202 455.234 802.101C450.995 800.978 447.541 796.069 444.911 792.525C444.632 792.267 444.352 792.01 444.073 791.752L444.065 791.5C444.096 791.196 444.052 790.101 444.402 789.881C444.728 789.891 446.044 791.138 446.347 791.371C444.892 787.384 444.156 785.328 444.189 780.946C444.162 780.232 444.181 779.92 444.025 779.228Z"/><path fill="#16202b" d="M444.025 779.228C450.7 780.933 456.166 784.457 460.396 790.517C463.94 795.594 463.159 804.202 455.234 802.101C450.995 800.978 447.541 796.069 444.911 792.525C444.632 792.267 444.352 792.01 444.073 791.752L444.065 791.5C444.096 791.196 444.052 790.101 444.402 789.881C444.728 789.891 446.044 791.138 446.347 791.371C449.017 794.111 449.773 797.602 454.227 799.765C460.059 802.596 461.888 798.213 459.738 793.071C457.057 786.66 450.434 783.306 444.189 780.946C444.162 780.232 444.181 779.92 444.025 779.228Z"/><path fill="#16202b" d="M444.404 801.646L445.898 802.308C446.322 804.586 446.762 806.844 447.222 809.116C447.58 811.443 447.859 813.78 448.223 816.132C447.393 815.777 446.885 815.504 446 815.328L445.888 813.195L435.665 807.893C438.642 806.064 441.786 803.935 444.404 801.646Z"/><path fill="#16202b" d="M447.222 809.116C447.58 811.443 447.859 813.78 448.223 816.132C447.393 815.777 446.885 815.504 446 815.328L445.888 813.195C446.725 811.493 446.754 811.033 447.222 809.116Z"/><path fill="#16202b" d="M440.474 770.19C445.579 771.068 441.95 774.735 444.025 779.228C444.181 779.92 444.162 780.232 444.189 780.946C444.156 785.328 444.892 787.384 446.347 791.371C446.044 791.138 444.728 789.891 444.402 789.881C444.052 790.101 444.096 791.196 444.065 791.5C441.28 789.63 440.165 788.296 436.858 786.622L436.026 786.189C438.457 784.584 444.066 782.394 441.471 779.581C441.534 778.152 442.314 778.256 442.312 776.776C442.307 773.374 442.244 772.756 440.474 770.19Z"/><path fill="#16202b" d="M444.073 791.752C444.352 792.01 444.632 792.267 444.911 792.525C445.12 795.588 445.469 797.627 445.594 800.906C445.699 801.373 445.8 801.84 445.898 802.308L444.404 801.646C444.115 801.325 443.929 801.103 443.599 800.814C440.354 799.461 438.842 798.948 435.569 797.339C437.686 795.814 441.933 792.906 444.073 791.752Z"/><path fill="#35507f" d="M443.599 800.814C444.487 800.799 444.698 800.817 445.594 800.906C445.699 801.373 445.8 801.84 445.898 802.308L444.404 801.646C444.115 801.325 443.929 801.103 443.599 800.814Z"/><path fill="#16202b" d="M433.688 787.392C435.424 787.923 439.053 790.284 440.859 791.306C438.335 792.825 436.33 794.416 433.828 795.999C432.834 796.609 428.396 793.035 427.16 792.231C429.377 790.516 431.373 788.981 433.688 787.392Z"/><path fill="#16202b" d="M433.385 798.353C435.85 799.358 438.338 800.645 440.673 801.928C438.44 803.543 436.547 804.903 434.242 806.427C432.496 806.889 428.712 803.535 427.274 802.458C430.019 800.8 430.794 800.301 433.385 798.353Z"/><path fill="#f3f0e9" d="M405.737 860.371C404.932 858.302 399.451 840.199 399.572 839.072L399.86 838.689C401.58 838.648 401.74 841.519 402.118 842.752C403.925 848.644 405.601 854.429 407.154 860.387C406.665 860.374 406.227 860.355 405.737 860.371Z"/><path fill="#16202b" d="M619.215 346.678L619.505 346.23C628.772 332.014 639.358 318.292 648.699 304.116C659.026 288.443 671.681 275.08 690.802 271C680.625 290.147 672.754 309.524 669.246 330.901C667.78 339.834 656.916 375.827 657.621 381.811L658.927 382.052C659.471 384.239 656.735 393.336 655.395 395.112C647.353 398.533 639.119 402.996 631.25 406.933C617.455 413.737 603.614 420.447 589.727 427.062C583.18 430.201 574.19 434.884 567.708 437.59C566.484 434.928 564.012 428.628 562.893 426.642L562.786 425.591C562.013 423.902 560.255 417.619 559.394 415.194C555.617 404.557 552.312 393.787 548.203 383.254L543.12 383.267C544.718 382.334 545.607 383.387 547.461 382.478L546.074 381.85L547.233 381.565C547.388 381.168 547.543 380.771 547.699 380.375C551.498 377.757 570.685 369.715 576.351 367.118L603.211 354.73C607.326 352.821 614.168 349.397 618.27 347.958C618.498 347.668 619.006 347.075 619.215 346.678Z"/><path fill="#f3f0e9" d="M619.215 346.678C623.767 350.602 628.945 353.651 633.429 357.504C633.606 357.656 632.854 358.891 632.263 358.692C631.545 358.449 631.405 358.224 630.774 357.728L629.233 356.518C626.391 354.322 620.277 350.517 618.27 347.958C618.498 347.668 619.006 347.075 619.215 346.678Z"/><path fill="#16202b" d="M159.001 806.869C166.076 794.631 172.99 782.3 179.74 769.88C183.476 763.129 188.237 755.167 191.653 748.385C195.191 741.359 197.002 731.387 201.201 723.784C202.834 723.812 203.187 724.442 204.825 725.485C205.699 725.75 205.78 725.817 206.665 726.232C222.638 735.073 240.269 742.581 255.971 752.033C256.816 752.541 256.197 752.322 257.174 752.536C257.786 753.318 257.941 753.295 258.957 753.404L260.624 754.256L260.997 755.544C259.88 758.399 259.285 758.016 256.265 758.517L248.594 761.353C247.557 759.383 246.973 757.613 245.104 756.611L243.882 756.579C243.077 758.722 245.36 760.157 246.874 761.545C247.525 761.86 247.383 761.588 247.19 762.215C247.273 762.485 247.312 762.696 247.454 762.925C247.507 762.915 247.56 762.904 247.613 762.893C247.977 763.256 247.859 763.404 247.541 763.767C248.323 764.986 249.146 766.192 249.921 767.416C251.858 770.095 253.011 769.89 252.858 773.017C252.456 774.76 251.98 776.486 251.432 778.188L248.731 779.79C248.908 780.763 249.014 781.482 249.141 782.463C249.391 783.041 249.605 783.393 249.918 783.953C248.827 788.712 247.704 793.452 246.805 798.252C254.454 801.636 261.107 804.273 267.407 809.975C282.331 823.479 284.888 840.838 277.763 858.996L216.896 832.278C209.709 829.135 199.794 824.208 192.793 821.532C192.279 820.982 191.998 820.739 191.604 820.105L191.017 820.887C180.378 816.14 169.706 811.467 159.001 806.869Z"/><path fill="#f3f0e9" d="M246.874 761.545C247.525 761.86 247.383 761.588 247.19 762.215C247.273 762.485 247.312 762.696 247.454 762.925C247.507 762.915 247.56 762.904 247.613 762.893C247.977 763.256 247.859 763.404 247.541 763.767C248.323 764.986 249.146 766.192 249.921 767.416C251.858 770.095 253.011 769.89 252.858 773.017C252.456 774.76 251.98 776.486 251.432 778.188L248.731 779.79C248.908 780.763 249.014 781.482 249.141 782.463C247.056 782.461 242.533 783.553 240.187 783.947C243.148 789.069 244.127 790.415 245.921 796.092C242.972 792.907 239.935 787.984 237.929 784.169C236.64 784.377 235.468 784.575 234.006 784.655C232.625 784.613 227.357 786.8 228.604 783.298C228.642 783.191 235.839 782.45 236.728 782.314C230.168 772.22 232.493 774.975 242.825 771.88C233.479 762.458 238.594 765.716 246.874 761.545Z"/><path fill="#16202b" d="M252.146 772.63C252.511 772.857 252.542 772.922 252.858 773.017C252.456 774.76 251.98 776.486 251.432 778.188L248.731 779.79C247.312 777.749 246.2 775.771 244.958 773.617C247.243 773.343 249.907 773.069 252.146 772.63Z"/><path fill="#16202b" d="M247.541 763.767C248.323 764.986 249.146 766.192 249.921 767.416C249.392 767.559 249.235 767.661 248.599 767.926C247.689 770.38 246.235 767.947 243.047 769.46C242.724 768.976 242.599 768.656 242.166 768.373C238.539 764.991 243.848 765.045 247.541 763.767Z"/><path fill="#5b636d" d="M242.166 768.373C244.48 768.131 246.287 767.983 248.599 767.926C247.689 770.38 246.235 767.947 243.047 769.46C242.724 768.976 242.599 768.656 242.166 768.373Z"/><path fill="#16202b" d="M248.599 767.926C249.235 767.661 249.392 767.559 249.921 767.416C251.858 770.095 253.011 769.89 252.858 773.017C252.542 772.922 252.511 772.857 252.146 772.63C251.434 767.771 243.616 774.821 243.127 770.105L243.047 769.46C246.235 767.947 247.689 770.38 248.599 767.926Z"/><path fill="#16202b" d="M241.983 774.098C243.89 774.147 246.149 778.864 246.035 779.998C245.924 781.11 240.483 782.032 239.527 782.236C238.31 781.521 236.213 777.512 235.263 776.032C237.603 775.274 239.561 774.629 241.983 774.098Z"/><path fill="#f3f0e9" d="M191.604 820.105C192.602 814.673 194.315 809.395 195.3 803.947C195.502 802.834 195.639 800.909 196.593 800.116C196.994 799.782 197.867 800.307 197.851 800.576C197.668 803.567 196.569 807.267 195.832 810.212L195.624 811.01L195.134 813.011C194.521 815.604 193.668 819.032 192.793 821.532C192.279 820.982 191.998 820.739 191.604 820.105Z"/><defs><linearGradient id="gradient_2" gradientUnits="userSpaceOnUse" x1="679.51782" y1="206.7773" x2="774.8493" y2="241.69269"><stop offset="0" stop-color="#16202b"/><stop offset="1" stop-color="#16202b"/></linearGradient></defs><path fill="url(#gradient_2)" d="M750.447 190.585C750.618 183.146 751.141 177.792 756.815 172.173C765.924 163.151 780.421 162.512 789.141 172.393C793.09 176.826 795.051 182.683 794.568 188.6C793.34 204.602 779.468 210.99 764.964 207.648C768.002 218.309 768.002 228.275 762.462 238.247C757.81 246.572 750.035 252.703 740.854 255.283C738.962 255.825 736.708 256.371 734.774 256.788L736.298 266.614C739.023 267.533 741.7 268.498 744.508 269.124C735.637 279.25 728.841 290.579 720.371 300.924C716.985 295.372 709.651 283.064 707.345 277.263L706.649 277.442C706.695 277.664 707.23 279.9 707.117 280.037C701.826 286.39 694.716 292.213 688.701 297.995C689.128 296.081 689.533 294.166 689.916 292.244L691.911 281.994C692.679 277.937 693.379 274.103 693.637 269.977C695.776 269.616 697.905 269.118 699.981 268.488L700.954 268.213C699.711 264.79 697.034 255.372 695.583 252.938C679.226 249.979 671.64 235.841 681.286 221.189C682.948 218.664 684.756 216.206 686.524 213.746C684.459 210.177 678.764 202.457 683.212 199.387C687.446 198.683 691.41 200.978 695.424 202.709C705.859 192.465 713.367 184.096 729.322 183.978C737.376 183.918 743.616 186.601 750.447 190.585Z"/><path fill="#f3f0e9" d="M710.164 191.217C716.051 193.564 724.11 197.87 729.711 201.051C727.398 210.737 727.053 216.562 731.241 225.834C737.115 223.34 744.387 221.799 747.579 229.103C748.802 231.929 748.795 235.136 747.561 237.956C743.498 247.365 734.647 244.535 728.918 238.35C730.712 247.061 733.029 256.958 734.478 265.641C726.315 269.178 715.509 274.318 707.345 277.263L706.649 277.442C706.695 277.664 707.23 279.9 707.117 280.037C701.826 286.39 694.716 292.213 688.701 297.995C689.128 296.081 689.533 294.166 689.916 292.244L691.911 281.994C692.679 277.937 693.379 274.103 693.637 269.977C695.776 269.616 697.905 269.118 699.981 268.488L700.954 268.213C699.711 264.79 697.034 255.372 695.583 252.938C695.866 252.686 697.181 251.862 697.251 251.693C697.232 251.654 697.213 251.615 697.194 251.576C696.844 251.398 695.748 251.423 695.561 251.415L694.638 251.258C689.184 249.745 684.158 247.905 681.183 242.609C675.038 231.664 682.654 222.4 688.885 213.94C686.881 210.652 683.587 206.093 683.548 202.368C685.623 199.156 692.919 203.395 695.738 204.697C699.745 200.914 706.11 194.423 710.164 191.217Z"/><path fill="#16202b" d="M694.638 251.258C703.482 250.529 708.891 248 717.155 245.5C710.931 250.57 706.215 253.038 699.943 259.21C701.43 265.537 703.682 271.659 706.649 277.442C706.695 277.664 707.23 279.9 707.117 280.037C701.826 286.39 694.716 292.213 688.701 297.995C689.128 296.081 689.533 294.166 689.916 292.244L691.911 281.994C692.679 277.937 693.379 274.103 693.637 269.977C695.776 269.616 697.905 269.118 699.981 268.488L700.954 268.213C699.711 264.79 697.034 255.372 695.583 252.938C695.866 252.686 697.181 251.862 697.251 251.693C697.232 251.654 697.213 251.615 697.194 251.576C696.844 251.398 695.748 251.423 695.561 251.415L694.638 251.258Z"/><path fill="#16202b" d="M685.832 220.341C689.718 221.061 689.734 222.59 693.202 223.678C696.974 224.736 701.365 224.206 704.78 222.274C705.745 221.728 707.542 220.494 707.203 222.45L706.571 222.896C700.092 227.482 690.453 227.391 685.832 220.341Z"/><path fill="#16202b" d="M709.652 200.317C710.247 200.841 710.524 201.081 710.373 201.969C709.649 206.219 714.12 210.124 718.086 207.757C719.352 207.001 719.906 207.197 719.728 208.674C717.029 210.38 716.161 210.954 712.998 209.558C711.046 208.681 709.548 207.029 708.867 205.001C708.211 203.002 708.698 202.077 709.652 200.317Z"/><path fill="#16202b" d="M565.226 764.143C566.632 760.667 566.794 759.577 571.308 760.735C573.539 761.307 575.867 761.688 578.146 762.046L580.115 762.319C581.407 762.561 582.691 762.85 583.994 763.106L594.246 765.065C603.744 766.786 613.164 769.191 622.747 770.557C624.872 770.86 627.372 771.366 629.4 771.996C629.911 772.024 630.368 772.075 630.875 772.128C632.765 772.733 632.996 772.43 633.874 773.723C633.154 779.546 628.061 788.439 626.767 794.21C621.868 816.065 617.284 838.141 612.604 860.036C604.905 857.994 597.227 855.874 589.572 853.675C585.846 852.623 579.209 850.927 575.825 849.401L574.295 849.392C548.615 842.454 521.1 835.012 495.614 827.608C503.41 807.968 520.624 795.604 542.244 798.671C546.152 799.225 549.869 800.125 553.71 801.01C556.107 795.741 556.935 791.055 559.993 785.589L560.954 785.514L561.577 784.545L560.823 783.312C561.972 780.531 562.579 778.984 563.019 776.002C562.252 776.015 562.157 776.096 561.565 775.841C558.419 779.604 555.617 783.367 550.536 784.528C542.386 786.389 541.47 777.898 545.609 772.967C550.75 766.842 557.665 765.008 565.226 764.143Z"/><path fill="#f3f0e9" d="M569.64 770.018L569.712 770.098C569.568 769.701 568.939 769.111 568.562 768.73C567.656 767.816 566.4 765.819 567.181 764.503C567.244 764.396 567.598 764.222 567.743 764.307C571.499 766.945 576.203 773.669 578.36 777.163L577.947 777.379C574.508 779.149 574.259 779.255 570.998 781.582C577.05 788.585 577.96 786.971 568.951 791.638C570.277 793.104 572.275 795.073 573.354 796.603C574.022 797.551 572.734 798.666 572.09 798.312C570.965 797.694 569.195 794.166 567.993 793.258C567.811 793.033 567.629 792.808 567.447 792.583C569.82 792.003 569.459 789.76 566.137 791.307C563.312 788.592 563.339 788.614 560.954 785.514L561.577 784.545L560.823 783.312C561.972 780.531 562.579 778.984 563.019 776.002C562.252 776.015 562.157 776.096 561.565 775.841C561.963 775.233 562.681 773.966 563.295 773.632C563.83 773.64 564.13 774.3 564.453 774.004C565.879 772.7 567.256 771.611 568.865 770.543L569.64 770.018Z"/><path fill="#16202b" d="M563.019 776.002C563.16 775.76 563.494 775.095 563.758 774.867C563.749 774.858 566.797 779.479 568.088 781.022C566.037 782.158 563.664 783.69 561.577 784.545L560.823 783.312C561.972 780.531 562.579 778.984 563.019 776.002Z"/><path fill="#16202b" d="M570.433 771.825C572.688 772.489 574.014 774.586 575.507 776.358L570.743 779.464C569.19 779.801 566.867 776.914 565.678 775.79C567.387 774.427 568.582 773.223 570.433 771.825Z"/><path fill="#16202b" d="M569.141 782.999C570.215 783.174 572.745 786.133 573.829 787.215C572.123 788.11 570.401 788.976 568.665 789.812C566.655 790.385 564.6 787.543 564.507 785.967C564.47 785.335 568.446 783.4 569.141 782.999Z"/><path fill="#f3f0e9" d="M574.295 849.392C576.774 846.888 588.421 830.01 590.315 830.42C590.606 830.484 590.712 830.536 590.798 830.792C590.965 831.288 590.588 831.917 590.303 832.286C589.437 833.402 588.468 834.459 587.577 835.562C587.393 835.79 587.201 836.011 587.018 836.239C583.587 840.516 580.313 846.195 575.825 849.401L574.295 849.392Z"/><path fill="#f3f0e9" d="M566.137 791.307C569.459 789.76 569.82 792.003 567.447 792.583C561.284 795.828 563.998 795.302 556.461 797.948C559.585 795.115 562.246 793.072 566.137 791.307Z"/><path fill="#fbf9f3" d="M563.941 766.167C566.536 767.243 556.966 778.145 555.456 779.716C552.904 782.371 550.119 783.072 546.529 782.965C539.291 773.218 556.975 767.307 563.941 766.167Z"/><path fill="#16202b" d="M455.052 423.554C455.751 421.148 460.407 410.45 461.603 408.528C465.738 401.881 475.939 372.801 480.94 369.243C480.406 371.132 480.131 372.007 479.365 373.804C483.645 375.547 494.091 380.742 497.32 381.356C507.628 383.314 515.491 376.202 525.195 383.073C531.457 382.615 540.225 381.234 546.074 381.85L547.461 382.478C545.607 383.387 544.718 382.334 543.12 383.267L548.203 383.254C552.312 393.787 555.617 404.557 559.394 415.194C560.255 417.619 562.013 423.902 562.786 425.591L562.893 426.642C561.25 427.485 557.39 428.77 555.508 429.457C561.58 440.441 557.455 440.831 549.467 442.503C549.051 442.59 547.484 446.574 546.233 447.403C543.635 449.127 542.172 448.016 539.258 448.145C536.229 450.406 537.773 455.471 530.832 453.66C528.693 453.102 527.12 456.001 525.367 457.215C522.589 459.139 521.55 457.571 518.582 457.567C515.564 458.188 510.735 462.203 508.242 457.602C506 453.465 503.394 456.788 499.231 455.495C497.834 454.558 497.464 453.586 496.789 451.946C495.181 448.043 488.179 453.777 487.112 446.983C486.374 442.283 483.639 445.463 480.339 443.979C476.646 442.318 478.075 439.506 476.441 436.616C475.34 435.033 471.488 434.588 470.303 432.061C470.001 428.989 471.897 425.728 473.309 423.029C468.276 421.137 464.744 419.142 460.075 416.585C459.167 418.413 457.194 423.169 455.978 424.005L455.052 423.554Z"/><path fill="#f3f0e9" d="M543.12 383.267L548.203 383.254C552.312 393.787 555.617 404.557 559.394 415.194C560.255 417.619 562.013 423.902 562.786 425.591L554.374 427.912C547.116 417.919 540.368 407.45 533.1 397.578C529.871 397.657 526.385 397.489 523.134 397.39C517.868 400.959 499.338 417.505 497.858 403.919C498.516 401.451 516.476 388.01 519.77 386.198C522.846 384.505 538.845 383.477 543.12 383.267Z"/><path fill="#f3f0e9" d="M478.681 375.098C483.215 377.266 493.188 382.378 497.521 383.286C504.243 384.695 515.51 379.416 522.162 383.106L522.018 383.556C514.931 385.264 513.605 389.379 506.636 394.157C502.364 397.087 487.986 404.626 501.472 410.937C505.622 412.879 518.464 402.454 523.708 398.993C527.009 399.313 529.008 399.365 532.32 399.342C539.363 410.268 547.507 420.683 554.553 431.708C558.479 437.85 553.909 442.707 549.673 440.13C546.128 437.973 533.224 416.072 530.385 414.775L530.107 415.768C531.182 418.677 537.804 427.438 540.065 430.582C543.567 435.297 551.794 442.88 543.416 446.982C536.181 447.565 527.985 427.089 522.211 422.853L521.771 423.279C523.135 429.272 541.596 446.25 535.13 451.764C530.418 455.783 526.146 445.384 523.567 443.197C522.469 442.266 519.864 441.416 518.141 440.789C518.384 429.821 514.221 434.219 508.551 432.579C507.342 432.229 508.282 423.616 499.484 427.635L498.927 427.895L498.001 427.259C495 420.365 493.391 421.824 487.299 424.482L486.483 424.104C483.739 416.587 480.861 418.255 474.965 421.709C469.626 419.963 465.624 417.604 460.781 414.789C466.575 401.56 472.84 388.515 478.681 375.098Z"/><path fill="#f3f0e9" d="M502.194 428.442C516.412 429.588 497.51 446.67 493.389 448.89C478.55 448.91 497.861 430.786 502.194 428.442Z"/><path fill="#f3f0e9" d="M511.43 433.986C521.196 436.476 515.121 441.75 510.6 447.542C508.225 450.585 506.383 453.139 502.793 454.607L502.186 454.441C491.919 451.728 501.794 444.048 504.96 440.421C506.436 438.731 508.838 435.799 510.626 434.562L511.43 433.986Z"/><path fill="#f3f0e9" d="M491.599 423.91C493.514 424.131 494.381 424.108 495.689 425.559C496.357 426.299 497.29 428.8 496.927 429.291C494.37 432.754 487.873 440.931 484.651 443.02C484.259 443.013 483.867 443.009 483.474 443.007C479.482 442.911 478.091 438.525 478.964 436.729C480.444 433.683 488.679 425.824 491.599 423.91Z"/><path fill="#f3f0e9" d="M517.235 442.912C520.039 443.692 521.152 444.116 523.824 445.148C521.387 451.83 520.263 454.354 513.995 457.497C510.697 457.912 508.536 457.606 508.217 453.753C508.064 451.891 515.939 444.22 517.235 442.912Z"/><path fill="#f3f0e9" d="M480.285 420.411C484.556 420.644 485.416 422.295 484.945 426.508C484.689 428.792 479.008 433.558 477.211 434.916C473.85 434.171 471.538 433.137 472.319 429.005C473.24 424.13 476.528 422.865 480.285 420.411Z"/><path fill="#f3f0e9" d="M524.609 447.789C529.352 452.644 527.423 453.762 522.565 456.501C521.915 456.434 519.246 456.378 520.528 454.992C522.479 452.884 523.58 450.428 524.609 447.789Z"/><path fill="#16202b" d="M249.978 762.734L250.523 762.542C253.211 761.574 258.562 758.699 260.66 760.814C265.564 767.09 273.944 777.806 266.402 785.89C264.654 787.765 259.479 786.384 258.425 784.305C255.007 779.46 255.366 775.94 255.671 770.36L255.266 770.044C252.779 768.141 251.702 765.43 249.978 762.734Z"/><path fill="#fbf9f3" d="M258.49 762.5C263.359 764.114 267.851 774.882 267.44 779.996C266.943 786.167 261.022 786.691 258.723 781.185C256.728 776.405 258.018 772.581 257.323 767.926C257.431 765.082 257.265 765.016 258.49 762.5Z"/><path fill="#16202b" d="M249.978 762.734L250.523 762.542C253.211 761.574 258.562 758.699 260.66 760.814C258.887 761.148 258.072 761.144 256.29 761.652L256.28 761.742C258.024 762.615 256.329 762.958 258.49 762.5C257.265 765.016 257.431 765.082 257.323 767.926L257.093 767.203C257.057 767.02 257.021 766.837 256.985 766.654C256.89 766.432 256.795 766.21 256.7 765.988C256.677 765.975 256.654 765.961 256.631 765.947C256.029 766.142 255.794 769.684 255.671 770.36L255.266 770.044C252.779 768.141 251.702 765.43 249.978 762.734Z"/><path fill="#16202b" d="M248.731 779.79L251.432 778.188C250.925 780.096 250.508 782.084 249.918 783.953C249.605 783.393 249.391 783.041 249.141 782.463C249.014 781.482 248.908 780.763 248.731 779.79Z"/><path fill="#35507f" d="M559.993 785.589C560.42 784.565 560.505 784.358 560.823 783.312L561.577 784.545L560.954 785.514L559.993 785.589Z"/></svg>