<?xml version="1.0" encoding="utf-8" ?><svg xmlns="http://www.w3.org/2000/svg" xmlns:xlink="http://www.w3.org/1999/xlink" width="1024" height="1024" viewBox="0 0 1024 1024"><path fill="#f3f0e9" d="M0 0L1024 0L1024 1024L945.869 1024L783.732 1024L0 1024L0 0Z"/><path fill="#35507f" d="M718.114 721.06C717.356 704.638 714.829 687.9 713.441 671.503C712.039 656.514 707.882 640.513 719.786 628.383C723.211 624.893 728.468 620.339 733.341 619.343C748.045 616.34 763.855 615.325 778.796 613.597L839.611 607.04C853.324 605.511 867.065 603.678 880.829 602.803C886.808 602.422 891.196 603.126 896.622 605.606C916.434 614.659 915.714 635.82 917.829 654.498L924.155 712.634C925.016 720.752 926.278 736.676 927.811 744.003C938.044 747.891 941.687 755.708 947.62 764.205L964.803 788.648L994.989 831.171C1004.73 845.15 1010.27 851.293 1013.97 868.519C986.839 868.624 960.815 879.277 941.4 898.226C939.3 900.318 937.235 902.446 935.208 904.61C934.669 895.701 931.142 851.952 928.157 845.622C920.099 828.537 902.917 805.963 893.922 788.267C884.571 771.439 890.743 748.548 909.662 741.664C907.8 721.257 905.392 700.832 903.36 680.438C902.892 676.253 902.522 671.541 901.316 667.536C899.323 660.913 891.772 655.189 884.764 655.373C871.965 655.709 858.59 657.82 845.821 659.089C814.925 661.965 784.059 665.151 753.227 668.647C742.024 670.012 732.054 675.086 733.015 687.497C735.211 715.849 738.502 746.236 742.118 774.336C742.43 776.781 742.768 779.224 743.131 781.662C751.571 785.191 758.106 789.867 761.562 798.737C764.396 805.912 764.169 813.934 760.934 820.937C757.265 828.968 751.42 833.299 743.347 836.14C751.89 840.351 757.386 844.635 760.572 854.092C763.014 861.38 762.45 869.341 759.004 876.212C756.61 880.942 753.661 883.934 749.659 887.26C749.925 889.859 750.157 892.908 750.546 895.455C764.857 906.263 766.023 921.892 757.55 936.675C760.679 941.364 763.878 944.78 769.645 945.999C778.691 947.911 833.835 939.66 847.254 938.061C869.085 935.458 891.24 933.779 912.937 930.226C915.569 929.794 918.045 929.107 920.571 928.26C911.045 951.796 911.369 975.94 923.971 998.578C930.201 1009.77 936.329 1015.64 945.869 1024L783.732 1024C763.183 1006.05 742.835 985.866 722.817 967.233C715.261 960.2 699.981 947.558 694.92 939.544C684.754 923.445 692.809 903.562 709.265 896.102C707.333 895.482 704.825 894.796 703.042 893.91C679.178 882.055 680.749 851.395 704.047 840.183C695.695 836.804 689.26 832.564 685.557 823.738C682.579 816.544 682.555 808.466 685.491 801.254C688.497 793.858 694.461 788.057 701.938 785.256C704.637 784.225 706.985 783.849 709.81 783.361C703.179 776.106 694.841 769.031 687.735 762.135C682.955 757.497 676.771 752.627 673.232 746.951C670.447 742.533 669.083 737.368 669.324 732.151C669.584 727.09 671.98 721.731 676.114 718.76C692.102 707.272 703.783 710.262 718.114 721.06Z"/><path fill="#f3f0e9" d="M810.962 626.517C815.181 625.681 819.523 627.183 822.323 630.448C825.122 633.713 825.945 638.233 824.474 642.275C823.004 646.317 819.469 649.252 815.226 649.955C808.808 651.018 802.723 646.735 801.559 640.335C800.394 633.934 804.581 627.782 810.962 626.517Z"/><path fill="#35507f" d="M733.361 133.126C734.5 134.414 771.31 271.336 773.938 281.719C768.114 294.622 761.049 308.516 754.774 321.322C750.748 319.666 746.133 317.211 742.199 315.168C727.4 307.482 711.945 300.413 697.455 292.211C693.832 300.113 689.42 308.298 685.523 316.188L661.013 366.062C668.889 370.227 676.802 374.323 684.751 378.348C690.985 381.439 697.41 384.339 703.386 387.818C708.886 391.019 707.546 395.801 704.664 400.299C702.704 403.358 700.564 407.36 699.713 410.9C702.778 412.405 726.571 422.677 724.403 427.446C715.339 447.379 705.027 467.104 695.267 486.762L548.497 779.365C542.081 792.18 495.599 887.024 492.729 888.735C488.426 891.301 471.097 879.813 466.115 877.64L465.391 877.329C464.101 879.508 462.559 882.884 461.401 885.254C459.314 886.821 458.231 887.206 455.862 888.218C451.376 886.586 439.434 880.111 434.855 877.767L388.677 853.835L236.099 775.042C221.214 767.055 139.396 727.19 132.483 719.95C131.481 716.238 139.451 701.95 141.336 698.186L155.387 669.967L210.188 561.244C239.845 503.474 268.346 444.44 297.681 386.435L340.353 300.965C352.442 277.068 364.966 253.366 376.394 229.154C378.796 224.064 381.427 222.48 386.31 224.89C397.005 230.17 408.786 236.302 419.269 241.691C440.44 252.452 461.542 263.35 482.573 274.383L544.698 306.595C559.591 314.226 574.984 321.588 589.562 329.769C600.853 308.779 617.08 276.737 626.597 255.021C607.786 245.429 587.958 235.114 569.112 225.79L589.279 185.682C596.415 182.59 606.617 179.125 614.112 176.352C629.777 170.522 645.482 164.799 661.225 159.183C685.128 150.669 709.394 141.192 733.361 133.126Z"/><path fill="#9db0cf" d="M386.234 239.705C409.823 252.614 434.904 264.562 458.862 277.082L690.841 396.72C671.794 435.688 652.306 474.439 632.38 512.965L515.903 744.853L478.472 819.667C470.59 835.244 459.502 856.099 453.051 871.993C442.828 866.441 432.103 861.238 421.757 855.809C389.52 838.837 357.165 822.089 324.694 805.569L148.342 714.562C154.403 700.446 166.239 678.414 173.36 664.235L220.541 570.512L320.717 370.616L367.864 276.584C374.075 264.082 380.284 252.414 386.234 239.705Z"/><path fill="#35507f" d="M359.847 425.187C374.685 422.787 389.987 432.845 402.793 439.41C417.535 446.908 432.238 454.481 446.901 462.13L504.446 491.754C516.749 498.001 530.442 504.369 542.101 511.559C552.09 517.719 558.843 527.381 561.181 538.971C562.512 545.512 562.337 552.269 560.669 558.732C557.497 570.933 548.961 583.809 543.542 595.24C533.282 616.889 528.631 631.673 502.931 636.457C484.378 637.238 477.766 631.631 461.634 623.33L416.559 599.795L356.499 568.806C345.067 563.044 333.55 557.458 322.224 551.458C309.204 544.56 301.292 532.23 299.444 517.511C298.698 511.709 299.183 505.814 300.866 500.212C303.107 492.592 325.776 446.857 330.062 441.368C337.594 431.722 347.866 426.696 359.847 425.187Z"/><path fill="#9db0cf" d="M363.602 448.641C366.522 448.435 368.359 448.624 370.998 449.882C380.116 454.225 389.225 458.995 398.209 463.602L459.989 495.64L505.487 518.789C512.691 522.456 522.221 526.62 528.594 531.04C542.677 540.807 537.589 555.253 530.669 567.199C526.394 574.578 522.855 583.333 519.065 590.788C513.029 602.659 511.963 610.297 497.121 612.452C494.413 612.562 492.873 612.181 490.369 610.99C478.419 605.305 466.543 599.104 454.788 593.05L399.151 564.552L357.2 542.902C349.069 538.773 340.37 534.659 332.529 530.171C325.416 525.324 320.837 513.916 324.502 505.685C329.837 493.701 336.592 482.041 342.039 469.969C347.077 458.801 350.305 450.765 363.602 448.641Z"/><path fill="#35507f" d="M398.677 285.418C402.804 285.981 415.498 292.972 420.054 295.233L492.496 331.992L598.261 385.789L625.827 399.754C632.59 403.143 657.563 412.509 640.379 421.077C635.555 421.02 618.484 411.714 613.28 409.093L554.258 379.067L448.468 325.292C432.363 317.091 416.262 308.892 400.139 300.719C396.896 299.075 391.637 295.36 393.009 290.915C393.87 288.126 396.252 286.745 398.677 285.418Z"/><path fill="#35507f" d="M199.151 689.52C201.401 689.477 202.406 689.593 204.454 690.62C217.289 697.052 230.067 703.605 242.846 710.149L311.583 745.226L386.84 783.652C404.335 792.484 421.919 801.139 439.283 810.23C446.602 814.062 448.11 819.153 440.622 823.957C439.629 824.122 438.512 824.341 437.508 824.295C435.323 824.196 221.221 715.427 201.669 704.666C199.41 703.422 197.152 702.004 195.553 699.938C194.403 698.452 193.825 696.954 194.17 695.04C194.652 692.366 196.99 690.778 199.151 689.52Z"/><path fill="#35507f" d="M320.154 704.51C325.23 704.406 333.565 709.571 338.334 711.975C354.422 720.101 370.459 728.325 386.447 736.646C408.881 748.205 431.541 759.34 453.986 770.9C458.341 773.144 464.753 776.165 462.143 782.426C461.193 784.706 459.618 785.566 457.523 786.718C457.142 786.702 456.762 786.686 456.383 786.646C451.311 786.103 334.178 726.216 320.134 718.235C318.764 717.456 317.407 716.665 316.462 715.363C315.34 713.816 314.849 712.075 315.179 710.178C315.677 707.324 317.858 705.897 320.154 704.51Z"/><path fill="#35507f" d="M380.963 324.496C381.44 324.48 381.919 324.458 382.396 324.479C384.48 324.57 386.366 325.507 388.219 326.385C398.236 331.129 520.76 393.27 522.419 395.432C523.464 396.794 524.12 398.352 523.952 400.09C523.664 403.086 521.211 404.806 518.971 406.403C518.776 406.415 518.581 406.438 518.386 406.439C516.012 406.445 513.893 405.47 511.774 404.505C501.425 399.79 379.396 338.63 376.825 335.117C375.859 333.799 375.592 331.749 376.013 330.202C376.778 327.391 378.542 325.914 380.963 324.496Z"/><path fill="#9db0cf" d="M693.284 423.029C698.19 425.149 703.157 427.836 707.925 430.298C700.761 446.879 691.519 464.353 683.43 480.513L651.848 543.636L588.63 669.4L521.73 802.927L500.583 845.208C496.222 853.949 491.333 864.374 486.45 872.643C481.12 870.148 476.417 867.649 471.237 864.871L636.879 534.312C648.488 511.739 659.984 489.109 671.365 466.42C677.958 453.204 686.119 435.546 693.284 423.029Z"/><path fill="#35507f" d="M870.886 828.114L870.721 828.945C869.596 830.258 869.857 829.836 867.577 830.139C865.329 833.111 870.439 850.813 865.506 850.935C856.573 851.156 847.324 851.227 838.394 851.38L807.213 851.91C802.97 851.979 789.809 852.92 786.91 850.71C786.351 846.86 786.327 838.107 786.227 833.747L785.594 799.075C785.137 778.396 783.306 752.854 783.78 732.691C789.935 729.156 848.841 730.584 859.86 729.038C865.876 728.194 863.242 736.174 865.424 738.606C869.489 738.717 873.474 739.185 877.516 739.605C876.583 760.184 874.619 781.257 873.212 801.841C872.619 810.507 871.421 819.499 870.886 828.114Z"/><path fill="#35507f" d="M865.424 738.606C869.489 738.717 873.474 739.185 877.516 739.605C876.583 760.184 874.619 781.257 873.212 801.841C872.619 810.507 871.421 819.499 870.886 828.114C869.154 829.213 868.98 829.141 866.854 829.243L867.636 829.106C865.175 824.804 866.062 792.263 865.356 784.659C864.718 777.795 865.196 767.049 864.788 759.641C864.477 753.999 864.34 745.863 864.64 740.28L865.424 738.606Z"/><path fill="#16202b" d="M865.424 738.606C869.489 738.717 873.474 739.185 877.516 739.605C876.583 760.184 874.619 781.257 873.212 801.841C872.619 810.507 871.421 819.499 870.886 828.114C869.154 829.213 868.98 829.141 866.854 829.243L867.636 829.106L868.848 828.384C870.574 824.506 874.73 750.07 874.717 741.67C871.563 741.388 867.824 740.747 864.64 740.28L865.424 738.606Z"/><path fill="#9db0cf" d="M845.911 735.72C849.527 735.518 853.787 735.558 857.456 735.5C858.695 752.863 858.391 770.679 858.921 788.104C859.495 806.989 860.57 825.771 861.03 844.663C843.158 845.411 823.665 845.435 805.75 845.568L793.095 845.806C792.783 809.703 790.872 773.274 790.5 737.512C807.517 737.629 828.69 736.397 845.911 735.72Z"/><path fill="#35507f" d="M805.633 768.665L845.012 768.52C847.808 770.589 848.195 770.703 850.097 773.659L850.081 789.968C847.888 792.781 847.473 793.608 844.158 794.993C834.109 795.266 823.773 794.954 813.699 795.249C810.741 795.335 805.673 795.935 803.353 794.177C798.105 790.185 801.219 781.768 800.339 776.236C799.728 772.403 802.297 770.127 805.633 768.665Z"/><path fill="#9db0cf" d="M806.315 774.129C818.078 773.95 832.597 773.962 844.384 774.01C844.465 778.63 844.635 784.935 843.978 789.431C831.24 789.664 818.861 789.629 806.036 789.974C806.009 786.527 805.754 776.899 806.315 774.129Z"/><path fill="#35507f" d="M837.305 742.724C840.196 742.615 849.462 741.54 850.943 743.573C851.063 745.343 851.341 746.559 850.614 748.153C847.777 748.723 839.908 748.757 836.733 748.853C827.779 749.159 818.821 749.375 809.862 749.501L796.036 749.857L796.018 743.685C809.784 743.513 823.547 743.192 837.305 742.724Z"/><path fill="#35507f" d="M843.006 754.275C844.337 754.168 845.668 754.074 847.001 753.994C849.093 753.877 849.66 753.779 851.103 755.068C851.442 756.631 851.321 756.841 851.127 758.401C848.786 760.783 811.345 761.085 805.225 761.404C803.168 761.409 797.692 761.839 796.586 760.776C796.534 759.047 796.325 757.769 796.979 756.184C800.026 755.424 809.496 755.331 813.165 755.203C823.109 754.795 833.056 754.486 843.006 754.275Z"/><path fill="#9db0cf" d="M779.324 852.744C779.43 852.716 780.619 852.336 780.665 852.76C781.63 861.566 782.725 871.139 783.07 880.013C791.556 879.362 800.849 878.299 809.183 877.892C809.464 881.357 809.552 884.758 809.747 888.229C806.742 888.453 804.146 888.548 801.121 888.902C791.993 889.572 782.764 890.547 773.582 891.222C772.931 878.903 771.273 865.894 770.379 853.512C773.385 853.357 776.33 853.057 779.324 852.744Z"/><path fill="#9db0cf" d="M906.657 841.252C906.82 841.263 907.223 841.28 907.247 841.378C908.913 848.285 910.437 873.072 910.596 878.528C899.282 879.894 887.075 880.68 875.543 881.976C873.315 881.582 873.918 873.694 873.84 871.604C882.609 870.655 891.302 869.912 900.087 869.188C899.159 860.038 897.865 851.157 897.295 841.966C900.599 841.627 903.374 841.489 906.657 841.252Z"/><path fill="#9db0cf" d="M883.52 687.292C884.582 687.175 887.531 686.536 888.394 687.204C889.054 687.716 891.348 719.229 891.928 723.174C888.208 723.485 884.758 723.567 881.03 723.686L879.379 704.379C879.132 702.448 879.053 700.617 878.844 698.706C871.214 699.359 861.671 700.237 854.098 700.584C853.836 696.758 853.549 693.798 853.442 689.918C862.68 688.998 874.624 688.512 883.52 687.292Z"/><path fill="#9db0cf" d="M792.015 698.709C793.806 699.024 793.517 707.024 793.575 709.032C786.759 709.838 775.682 710.792 768.818 711.09C769.073 720.337 769.803 728.425 770.546 737.594C766.992 737.944 764.183 738.011 760.618 738.137C759.831 737.084 757.515 705.937 757.227 701.788L792.015 698.709Z"/></svg>