<?xml version="1.0" encoding="utf-8" ?><svg xmlns="http://www.w3.org/2000/svg" xmlns:xlink="http://www.w3.org/1999/xlink" width="1024" height="1024" viewBox="0 0 1024 1024"><path fill="#F2EDE3" d="M0 0L1024 0L1024 1024L778.114 1024L295.278 1024L225.596 1024L0 1024L0 431.718L0 0Z"/><path fill="#8B9DC9" d="M0 431.718C3.09931 422.379 4.93801 413.831 8.68905 404.425C26.8265 358.947 67.304 324.191 117.484 322.288C162.399 320.585 205.249 356.234 224.419 394.87C231.537 409.113 235.951 424.552 237.438 440.405C241.886 483.256 228.4 512.664 218.104 552.774C213.105 572.922 209.678 593.427 207.854 614.105C203.121 670.956 217.966 735.59 238.391 788.432C260.371 845.298 275.648 898 257.968 959.077C257.508 960.662 257.033 962.242 256.543 963.817C256.066 965.351 255.569 966.879 255.053 968.4C248.594 987.437 238.068 1008.21 225.596 1024L0 1024L0 431.718Z"/><path fill="#8B9DC9" d="M295.278 1024C303.458 981.023 325.09 947.335 361.258 922.997C425.77 879.587 509.649 897.44 569.736 939.46C579.859 946.539 589.607 954.095 599.706 961.087C611.677 969.327 624.26 976.641 637.345 982.964C671.397 999.308 702.615 1007.25 739.106 1015.49C747.457 1017.35 755.827 1019.12 764.215 1020.81C767.365 1021.45 775.411 1022.93 778.114 1024L295.278 1024Z"/><path fill="#8B9DC9" d="M418.758 650.696C443.95 648.572 465.595 661.532 479.203 682.36C513.32 734.58 509.714 809.576 454.225 845.949C424.755 865.266 394.106 866.776 360.413 859.839C321.744 849.848 278.786 825.979 272.962 782.168C270.349 762.508 279.457 742.636 291.609 727.68C311.689 702.967 342.415 692.233 367.15 673.424C383.529 661.033 398.082 652.733 418.758 650.696Z"/><path fill="#8B9DC9" d="M310.772 483.683C349.31 477.111 405.739 532.799 416.019 567.134C431.371 618.403 375.451 659.844 331.638 672.274C285.622 685.343 234.566 675.932 228.736 620.274C223.444 569.761 253.607 490.417 310.772 483.683Z"/></svg>