<?xml version="1.0" encoding="utf-8" ?><svg xmlns="http://www.w3.org/2000/svg" xmlns:xlink="http://www.w3.org/1999/xlink" width="1024" height="1024" viewBox="0 0 1024 1024"><path fill="#F2EDE3" d="M0 0L1024 0L1024 1024L0 1024L0 0Z"/><path fill="#222D4E" d="M311.057 238.349L562.993 238.49C567.047 244.694 579.844 258.426 585.287 264.721C601.688 283.688 618.765 302.337 635.166 321.341C638.61 321.912 661.882 321.581 666.941 321.581L741.905 321.603C757.123 339.737 773.618 357.748 789.191 375.681C793.746 380.927 808.294 397.91 812.586 401.784L812.572 410.394C824.595 414.537 823.373 417.916 830.254 425.89C830.012 426.595 829.752 427.293 829.474 427.984C829.646 437.918 828.702 439.425 822.51 447.302C823.452 451.116 824.273 454.901 825.167 458.72L825.64 460.729C826.21 463.045 826.862 465.247 827.376 467.609L827.967 468.445C854.746 469.882 862.714 485.247 869.089 509.087C872.324 521.183 877.149 533.599 880.306 545.79C885.357 565.293 871.302 576.689 853.255 577.652C853.617 591.259 855.569 607.088 856.887 620.809L863.456 690.952C863.893 695.882 864.489 700.81 865.009 705.729C866.542 720.243 870.196 730.099 856.09 739.329C855.046 749.692 854.526 769.978 854.686 780.583L891.715 780.564C886.684 782.319 857.318 780.011 854.264 781.662C855.875 781.937 855.574 781.551 856.272 782.409C854.36 782.754 844.739 782.6 842.347 782.592L812.036 782.507L703.75 782.572L489.946 782.553L419.437 782.588C408.514 782.596 393.373 783.134 382.841 782.482C373.914 782.744 364.541 782.72 355.611 782.583C309.889 781.882 263.689 783.497 218.024 782.43C213.033 780.384 177.894 783.168 170.344 781.966C162.017 780.639 148.699 782.075 140.762 780.81C143.877 780.255 159.386 780.492 163.535 780.498L163.875 529.768L163.846 448.068C163.843 436.013 164.318 420.623 163.876 408.914C163.146 408.225 162.992 408.172 162.102 407.769L161.278 407.402L161.204 406.534C163.441 403.072 169.845 396.319 172.93 392.883C181.489 383.536 189.978 374.125 198.397 364.651C235.671 322.429 274.092 280.75 311.057 238.349Z"/><path fill="#8B9DC9" d="M311.057 238.349L562.993 238.49C567.047 244.694 579.844 258.426 585.287 264.721C601.688 283.688 618.765 302.337 635.166 321.341L634.109 321.99L633.011 321.415C610.382 296.01 585.461 268.91 563.626 243.083C554.308 253.77 542.618 265.225 532.679 275.865L447.565 366.138L420.391 394.828C416.59 398.842 412.426 403.108 408.762 407.273C408.255 407.849 408.286 409.726 408.199 410.708L408.115 536.671C408.092 570.178 407.613 604.98 408.222 638.393C423.605 640.265 442.487 637.028 458.254 639.381C462.656 640.038 470.726 638.486 474.762 640.02L403.485 640.015C393.924 640.018 382.769 639.617 373.253 640.499C369.865 640.813 364.596 646.127 364.368 649.694C363.154 668.711 364.635 688.862 364.004 707.862C363.821 712.354 363.457 752.254 364.229 753.884C364.721 761.724 368.13 765.316 375.813 766.868L376.659 766.992C379.421 767.372 380.939 766.892 383.693 767.708C380.432 768.154 376.616 768.11 373.309 768.094C376.45 768.723 380.527 768.542 383.807 768.523C383.847 771.294 384.322 779.318 383.232 781.201C379.027 781.747 374.179 781.608 369.902 781.654C373.207 781.774 380.214 781.515 382.841 782.482C373.914 782.744 364.541 782.72 355.611 782.583C309.889 781.882 263.689 783.497 218.024 782.43C213.033 780.384 177.894 783.168 170.344 781.966C162.017 780.639 148.699 782.075 140.762 780.81C143.877 780.255 159.386 780.492 163.535 780.498L163.875 529.768L163.846 448.068C163.843 436.013 164.318 420.623 163.876 408.914C163.146 408.225 162.992 408.172 162.102 407.769L161.278 407.402L161.204 406.534C163.441 403.072 169.845 396.319 172.93 392.883C181.489 383.536 189.978 374.125 198.397 364.651C235.671 322.429 274.092 280.75 311.057 238.349Z"/><defs><linearGradient id="gradient_0" gradientUnits="userSpaceOnUse" x1="450.08722" y1="760.79724" x2="319.57059" y2="236.98906"><stop offset="0" stop-color="#070B26"/><stop offset="1" stop-color="#16204F"/></linearGradient></defs><path fill="url(#gradient_0)" d="M311.057 238.349L562.993 238.49C567.047 244.694 579.844 258.426 585.287 264.721C601.688 283.688 618.765 302.337 635.166 321.341L634.109 321.99L633.011 321.415C610.382 296.01 585.461 268.91 563.626 243.083C554.308 253.77 542.618 265.225 532.679 275.865L447.565 366.138L420.391 394.828C416.59 398.842 412.426 403.108 408.762 407.273C408.255 407.849 408.286 409.726 408.199 410.708L407.667 408.771L406.518 408.878C404.82 407.882 395.828 408.277 393.25 408.28L351.308 408.312L226.505 408.387C206.722 408.412 185.643 408.041 165.974 408.392L165.809 780.536L313.507 780.585L359.253 780.708C365.182 780.738 377.774 780.528 383.232 781.201C379.027 781.747 374.179 781.608 369.902 781.654C373.207 781.774 380.214 781.515 382.841 782.482C373.914 782.744 364.541 782.72 355.611 782.583C309.889 781.882 263.689 783.497 218.024 782.43C213.033 780.384 177.894 783.168 170.344 781.966C162.017 780.639 148.699 782.075 140.762 780.81C143.877 780.255 159.386 780.492 163.535 780.498L163.875 529.768L163.846 448.068C163.843 436.013 164.318 420.623 163.876 408.914C163.146 408.225 162.992 408.172 162.102 407.769L161.278 407.402L161.204 406.534C163.441 403.072 169.845 396.319 172.93 392.883C181.489 383.536 189.978 374.125 198.397 364.651C235.671 322.429 274.092 280.75 311.057 238.349Z"/><path fill="#F2EDE3" d="M327.195 257.134C340.936 256.424 359.687 256.893 373.684 256.867L468.522 257.121C484.361 257.174 500.961 257.536 516.713 257.132C480.823 292.718 446.17 329.953 410.488 365.785C406.059 370.233 401.928 374.888 397.289 379.148C395.089 380.192 220.911 379.649 208.733 379.631L286.665 298.607L309.074 275.131C314.02 269.894 321.746 261.367 327.195 257.134Z"/><path fill="#222D4E" d="M300.275 290.065L357.966 290.023L338.741 309.396C337.041 311.102 330.805 317.497 329.117 318.592C328.796 319.176 328.189 320.489 327.588 320.737C319.753 327.681 308.843 339.674 301.376 347.411C283.398 347.019 262.755 347.037 244.855 347.411C248.573 343.391 269.404 321.12 272.43 320.207L272.74 318.525C281.25 309.721 291.585 298.363 300.275 290.065Z"/><path fill="#222D4E" d="M272.43 320.207C275.224 320.744 277.215 320.513 279.916 320.666C295.067 321.529 312.668 319.442 327.588 320.737C319.753 327.681 308.843 339.674 301.376 347.411C283.398 347.019 262.755 347.037 244.855 347.411C248.573 343.391 269.404 321.12 272.43 320.207Z"/><path fill="#F2EDE3" d="M272.74 318.525C290.768 318.53 311.309 318.029 329.117 318.592C328.796 319.176 328.189 320.489 327.588 320.737C312.668 319.442 295.067 321.529 279.916 320.666C277.215 320.513 275.224 320.744 272.43 320.207L272.74 318.525Z"/><path fill="#222D4E" d="M421.603 289.738C425.098 290.298 436.84 290.061 441.061 290.052L478.711 289.97C476.056 292.755 451.177 318.198 450.039 318.42L392.361 318.439C401.659 309.099 411.908 298.526 421.603 289.738Z"/><path fill="#222D4E" d="M360.924 290.11L418.18 289.985C409.097 299.319 398.674 309.16 389.347 318.466L332.504 318.526C341.801 309.67 351.467 299.321 360.924 290.11Z"/><path fill="#222D4E" d="M390.66 320.525C407.293 321.297 431.546 320.528 448.73 320.501C439.947 329.194 431.402 338.651 422.461 347.093L363.623 347.19C372.564 338.23 381.577 329.341 390.66 320.525Z"/><path fill="#222D4E" d="M361.705 349.501L420.12 349.431C411.842 357.976 403.23 367.245 394.72 375.461C375.164 375.725 355.239 375.561 335.654 375.592C344.465 366.948 352.401 357.821 361.705 349.501Z"/><path fill="#222D4E" d="M328.791 261.36C332.896 261.025 343.282 261.33 347.746 261.344L386.215 261.482L359.795 287.964L302.344 287.902C311.208 279.296 319.624 269.67 328.791 261.36Z"/><path fill="#222D4E" d="M449.849 261.394L506.15 261.432C500.023 268.89 487.884 280.555 480.877 287.662C464.59 288.522 440.185 287.839 423.496 287.741C431.767 279.088 440.959 269.253 449.849 261.394Z"/><path fill="#222D4E" d="M330.702 320.559L387.46 320.495C379.061 329.394 369.306 338.382 360.596 347.366C354.987 347.659 347.152 347.413 341.412 347.404L304.455 347.293C313.333 338.525 321.932 329.453 330.702 320.559Z"/><path fill="#222D4E" d="M389.185 261.459L446.511 261.44C437.667 269.856 428.635 279.105 419.958 287.75C402.646 288.574 380.475 287.953 362.795 287.964L389.185 261.459Z"/><path fill="#222D4E" d="M302.349 349.486C320.485 349.072 340.376 349.502 358.659 349.512C350.848 356.506 340.466 367.682 333.085 375.501C314.304 375.711 295.242 375.513 276.441 375.477C283.56 367.375 294.456 357.227 302.349 349.486Z"/><path fill="#222D4E" d="M243.447 349.297C249.451 349.686 257.829 349.468 263.963 349.469L299.134 349.462C290.851 358.044 282.171 366.636 273.773 375.136C271.485 376.056 224.426 375.415 218.451 375.391C224.685 367.586 236.165 356.542 243.447 349.297Z"/><path fill="#010107" d="M406.518 408.878L407.667 408.771L408.199 410.708L408.115 536.671C408.092 570.178 407.613 604.98 408.222 638.393C423.605 640.265 442.487 637.028 458.254 639.381C462.656 640.038 470.726 638.486 474.762 640.02L403.485 640.015C393.924 640.018 382.769 639.617 373.253 640.499C369.865 640.813 364.596 646.127 364.368 649.694C363.154 668.711 364.635 688.862 364.004 707.862C363.821 712.354 363.457 752.254 364.229 753.884C364.721 761.724 368.13 765.316 375.813 766.868L376.659 766.992C379.421 767.372 380.939 766.892 383.693 767.708C380.432 768.154 376.616 768.11 373.309 768.094C364.866 766.801 362.42 759.725 362.468 752.31C362.689 717.869 361.524 683.32 362.547 648.912C362.677 644.518 369.586 639.256 373.749 638.757C384.108 637.64 396.089 638.206 406.528 638.273L406.518 408.878Z"/><path fill="#222D4E" d="M202.509 447.901C206.986 447.316 215.737 447.534 220.643 447.527L252.576 447.526L358.509 447.566L358.62 573.897C361.97 573.849 369.862 573.459 372.613 574.372L373.002 575.12C372.066 576.147 370.941 575.987 369.189 575.998C358.826 576.066 348.39 576.014 338.027 576.002L279.672 576.006L231.315 576.015C222.578 576.015 211.917 576.276 203.349 575.765L202.671 575.043C204.819 573.333 214.521 573.95 217.633 573.989C217.844 532.488 217.838 490.986 217.616 449.485C214.976 449.501 204.714 449.71 202.701 449.237L202.509 447.901Z"/><path fill="#010107" d="M202.509 447.901C204.055 448.054 217.345 448.158 217.671 448.354L217.672 448.372C216.618 449.304 205.325 448.834 202.701 449.237L202.509 447.901Z"/><path fill="#222D4E" d="M202.363 635.123C212.938 634.328 230.942 634.941 242.359 634.936L322.694 635L322.608 730.732C326.66 730.822 335.705 729.763 338.014 731.977C336.659 733.188 324.913 732.828 322.375 732.833C298.335 732.979 274.294 732.99 250.253 732.867C235.71 732.816 218.035 733.172 203.792 732.267L203.109 731.718L202.007 732.001C205.292 730.469 213.242 730.735 217.108 730.767C217.307 699.525 217.292 668.282 217.063 637.041C213.867 637.026 205.541 637.63 202.883 636.563L202.363 635.123Z"/><path fill="#F2EDE3" d="M741.292 324.39C764.229 350.709 787.347 376.871 810.644 402.873L810.625 409.809C796.436 409.657 786.362 413.832 784.337 429.507C777.283 429.466 769.216 429.344 762.42 430.992C767.822 433.47 781.543 433.864 788.242 434.997C789.018 435.102 789.461 435.12 790.246 435.15C788.921 438.233 787.993 441.502 786.863 444.707C786.495 446.31 785.349 448.311 785.505 449.95C785.659 450.553 787.021 450.324 787.249 450.288C791.308 449.639 790.605 452.282 791.391 455.256C792.672 460.104 794.961 460.952 799.447 461.292C799.16 461.796 798.915 462.23 798.604 462.722L798.539 468.736C778.323 470.09 766.19 478.28 760.209 498.059C759.329 498.81 731.897 498.338 727.967 498.599C727.614 497.773 726.918 494.564 726.666 493.513L719.094 493.561C718.557 492.025 717.997 490.498 717.416 488.978C714.287 488.793 710.74 488.816 707.577 488.77L707.51 488.269C706.069 478.52 695.976 478.248 695.219 488.559C692.304 488.669 688.426 488.238 686.159 489.438C685.042 491.331 685.475 491.323 685.565 493.967L685.427 495.401C681.823 495.488 678.217 495.524 674.611 495.51C679.2 509.794 683.627 524.13 687.891 538.515C689.822 544.979 692.441 553.003 694.011 559.407L692.232 561.071C695.498 562.063 721.49 561.375 727.026 561.465L730.91 571.869C738.949 572.962 752.314 571.664 760.801 571.923C763.328 572 768.533 571.663 770.747 572.242C770.457 599.741 765.398 627.04 762.073 654.318C762.533 655.538 762.805 656.502 763.582 657.556C761.076 679.003 757.132 701.869 755.884 723.466C755.526 729.657 761.645 736.151 767.235 738.711L766.564 740.262C765.755 743.349 766.11 757.108 766.155 760.948C757.56 763.563 744.921 765.815 740.041 773.925C739.006 775.646 738.354 778.576 737.853 780.577L727.94 780.555L727.827 612.564L651.801 612.518L651.701 780.625C637.839 780.461 623.753 780.574 609.873 780.559C609.846 765.168 610.311 746.586 609.604 731.452C610.226 725.874 609.696 707.418 609.69 700.993L609.768 638.43L609.787 538.895C609.774 524.295 610.423 502.816 609.595 488.654C610.104 483.972 609.839 472.943 610.021 467.392C653.043 419.573 697.823 372.011 741.292 324.39Z"/><path fill="#1E1E32" d="M762.073 654.318C762.533 655.538 762.805 656.502 763.582 657.556C761.076 679.003 757.132 701.869 755.884 723.466C755.526 729.657 761.645 736.151 767.235 738.711L766.564 740.262L765.785 739.963C762.489 738.73 760.27 737.041 758.052 734.241C755.69 731.235 754.24 727.614 753.874 723.808C753.435 718.807 755.642 704.443 756.374 698.786L762.073 654.318Z"/><path fill="#1E1E32" d="M672.1 493.451C676.049 493.871 681.322 493.743 685.565 493.967L685.427 495.401C681.823 495.488 678.217 495.524 674.611 495.51C679.2 509.794 683.627 524.13 687.891 538.515C689.822 544.979 692.441 553.003 694.011 559.407L692.232 561.071C691.428 556.688 689.142 549.992 687.806 545.563C684.871 535.582 681.853 525.625 678.751 515.694C676.817 509.593 673.293 499.502 672.1 493.451Z"/><path fill="#1E1E32" d="M788.242 434.997C789.018 435.102 789.461 435.12 790.246 435.15C788.921 438.233 787.993 441.502 786.863 444.707C786.495 446.31 785.349 448.311 785.505 449.95C785.659 450.553 787.021 450.324 787.249 450.288C791.308 449.639 790.605 452.282 791.391 455.256C792.672 460.104 794.961 460.952 799.447 461.292C799.16 461.796 798.915 462.23 798.604 462.722C791.128 462.19 790.4 459.192 788.991 452.427C786.852 452.198 784.955 452.191 782.832 451.96C784 447.062 786.388 439.641 788.242 434.997Z"/><path fill="#F2EDE3" d="M458.993 467.957L607.686 467.929L607.713 473.364C608.564 471.998 608.457 469.928 608.867 468.238L609.302 468.328C609.275 472.743 608.95 484.627 609.595 488.654C610.423 502.816 609.774 524.295 609.787 538.895L609.768 638.43L609.69 700.993C609.696 707.418 610.226 725.874 609.604 731.452C608.13 745.917 610.293 766.356 609.179 780.73C608.221 780.806 608.596 780.917 608.009 780.635C574.635 780.23 540.566 780.531 507.154 780.556C507.089 776.658 507.234 772.434 507.295 768.511C523.001 768.472 533.309 770.61 533.404 750.449L533.529 683.419C533.563 672.432 533.939 660.36 533.246 649.479C532.345 635.334 508.537 638.299 499.063 638.279L458.923 638.197L458.993 467.957Z"/><path fill="#171A3C" d="M607.713 473.364C608.564 471.998 608.457 469.928 608.867 468.238L609.302 468.328C609.275 472.743 608.95 484.627 609.595 488.654C610.423 502.816 609.774 524.295 609.787 538.895L609.768 638.43L609.69 700.993C609.696 707.418 610.226 725.874 609.604 731.452C608.13 745.917 610.293 766.356 609.179 780.73C608.221 780.806 608.596 780.917 608.009 780.635C607.361 771.481 607.87 755.004 607.847 745.078L607.784 672.198L607.713 473.364Z"/><path fill="#222D4E" d="M508.801 504.091C524.522 504.087 540.242 504.176 555.962 504.359L556.087 618.405C559.246 618.347 565.535 617.945 568.065 619.371C566.21 621.046 558.501 620.55 555.625 620.495C536.008 620.491 514.733 620.902 495.25 620.33L494.609 619.586L495.001 618.812C497.753 618.057 505.588 618.426 508.927 618.479L508.801 504.091Z"/><path fill="#8B9DC9" d="M563.626 243.083C585.461 268.91 610.382 296.01 633.011 321.415C618.464 321.843 603.048 321.459 588.422 321.52C576.8 333.822 455.003 463.101 453.559 466.872C454.663 467.875 454.8 467.707 456.34 468.131C457.849 470.873 456.963 621.176 456.966 638.117L424.502 638.115C420.846 638.117 411.431 637.94 408.222 638.393C407.613 604.98 408.092 570.178 408.115 536.671L408.199 410.708C408.286 409.726 408.255 407.849 408.762 407.273C412.426 403.108 416.59 398.842 420.391 394.828L447.565 366.138L532.679 275.865C542.618 265.225 554.308 253.77 563.626 243.083Z"/><path fill="#8B9DC9" d="M772.659 586.996L851.686 587.044C855.055 620.448 858.21 653.873 861.151 687.318C861.738 693.808 862.41 700.291 863.165 706.764C864.263 715.682 867.037 725.843 860.834 733.438C857.651 737.334 852.435 739.743 847.381 739.97C826.393 740.914 815.533 740.298 813.141 716.5C811.684 717.295 812.081 717.479 811.552 719.143L811.485 718.605L810.347 718.489L810.237 719.135C808.293 720.392 809.083 718.621 808.626 716.364C807.81 724.834 807.044 730.961 799.657 736.456C798.781 737.108 797.821 737.681 797.028 738.424C791.922 740.155 772.026 740.27 767.235 738.711C761.645 736.151 755.526 729.657 755.884 723.466C757.132 701.869 761.076 679.003 763.582 657.556C767.148 635.27 769.647 609.693 772.659 586.996Z"/><path fill="#222D4E" d="M795.74 612.316C799.03 614.503 802.56 616.665 805.91 618.789C808.061 642.706 808.844 666.947 811.293 690.876C812.063 698.405 812.715 706.494 812.939 714.041C813.019 714.86 813.086 715.679 813.141 716.5C811.684 717.295 812.081 717.479 811.552 719.143L811.485 718.605L810.347 718.489L810.237 719.135C808.293 720.392 809.083 718.621 808.626 716.364C808.67 706.4 806.614 695.19 805.342 685.097L799.105 636.568C798.033 628.544 796.58 620.298 795.74 612.316Z"/><path fill="#171A3C" d="M811.298 716.003C811.719 714.841 811.686 714.362 812.939 714.041C813.019 714.86 813.086 715.679 813.141 716.5C811.684 717.295 812.081 717.479 811.552 719.143L811.485 718.605C811.431 717.737 811.369 716.87 811.298 716.003Z"/><path fill="#CDC9D0" d="M811.298 716.003C811.369 716.87 811.431 717.737 811.485 718.605L810.347 718.489C810.659 717.546 810.831 716.868 811.298 716.003Z"/><path fill="#F2EDE3" d="M474.762 640.02C476.808 640.118 478.76 640.207 480.811 640.231C472.994 648.017 474.403 651.794 474.662 662.12L474.558 707.657C452.912 707.981 431.262 708.078 409.614 707.948C394.895 707.941 378.636 708.232 364.004 707.862C364.635 688.862 363.154 668.711 364.368 649.694C364.596 646.127 369.865 640.813 373.253 640.499C382.769 639.617 393.924 640.018 403.485 640.015L474.762 640.02Z"/><path fill="#222D4E" d="M390.123 651.233C402.34 651.109 414.559 651.079 426.777 651.141C453.182 651.165 463.191 646.684 461.576 677.867C461.102 687.013 462.217 697.357 450.073 698.778C441.304 699.066 388.156 699.999 384.255 697.346C381.165 695.245 379.565 691.002 379.06 687.459C378.267 681.89 378.124 666.639 379.139 661.365C379.563 659.076 380.557 656.931 382.029 655.128C384.292 652.343 386.746 651.626 390.123 651.233Z"/><path fill="#F2EDE3" d="M456.883 658.757C457.259 659.01 456.999 658.798 457.348 659.648C455.378 661.054 435.19 660.453 431.387 660.451L383.114 660.443L382.644 660.045L382.635 659.331C384.737 658.53 449.909 658.784 456.883 658.757Z"/><path fill="#CDC9D0" d="M408.849 682.243C414.692 682.15 453.504 681.7 457 682.57L456.541 683.043C452.791 683.91 435.616 683.582 430.701 683.582C424.651 683.673 385.115 684.5 382.351 683.343C385.622 681.679 404.188 682.288 408.849 682.243Z"/><path fill="#F2EDE3" d="M382.028 666.735C382.843 666.657 383.676 666.56 384.497 666.559C405.194 666.518 425.894 666.547 446.591 666.542C449.868 666.541 453.132 666.42 456.377 666.832C456.703 667.144 457.029 667.455 457.355 667.767C451.949 668.433 437.741 668.003 431.713 668.073C416.589 668.247 401.121 668.053 385.976 668.088C383.448 668.094 383.364 668.162 382.028 666.735Z"/><path fill="#F2EDE3" d="M382.07 674.739C382.052 674.743 383.008 674.536 383.448 674.535C407.833 674.457 432.351 674.225 456.721 674.691C457.055 674.978 457.389 675.266 457.723 675.553C458.226 675.449 457.022 675.719 456.744 675.724C432.368 676.108 407.695 676.125 383.314 675.698C382.899 675.378 382.485 675.059 382.07 674.739Z"/><path fill="#F2EDE3" d="M381.882 690.254C385.012 689.83 403.351 689.639 406.098 689.91C414.112 690.7 453.438 688.31 458.161 690.777C455.079 691.406 432.124 691.141 426.789 691.144L398.791 691.145C395.304 691.143 384.569 691.649 381.882 690.254Z"/><path fill="#F2EDE3" d="M364.35 709.963L474.587 709.985C474.572 724.348 474.489 738.723 474.646 753.084C474.72 759.911 475.549 762.297 480.788 766.64C456.155 766.816 431.522 766.817 406.89 766.644C401.759 766.632 379.673 766.255 375.813 766.868C368.13 765.316 364.721 761.724 364.229 753.884C364.75 739.585 364.072 724.377 364.35 709.963Z"/><path fill="#222D4E" d="M460.783 724.314C462.697 723.183 465.166 723.812 466.305 725.722C467.444 727.633 466.824 730.104 464.919 731.251C463.002 732.404 460.514 731.779 459.368 729.858C458.223 727.937 458.857 725.451 460.783 724.314Z"/><path fill="#171A3C" d="M449.133 729.541C450.718 728.801 452.605 729.457 453.389 731.021C454.173 732.585 453.57 734.489 452.028 735.316C450.992 735.873 449.735 735.822 448.747 735.185C447.759 734.547 447.195 733.422 447.275 732.249C447.356 731.075 448.067 730.038 449.133 729.541Z"/><path fill="#222D4E" d="M483.577 707.897L483.551 674.092C483.476 650.575 480.269 642.418 508.288 644.351C516.474 644.916 519.607 643.542 524.494 652.021C524.838 670.487 524.105 689.638 524.646 707.931L524.618 710.219L524.789 736.256C524.9 747.696 527.305 762.401 511.514 762.605C485.129 762.946 483.413 763.79 483.494 737.046L483.678 709.977C483.655 709.256 483.637 708.621 483.577 707.897Z"/><path fill="#F2EDE3" d="M685.427 495.401C686.299 497.029 686.572 499.782 686.884 501.696C697.594 501.89 708.307 501.93 719.018 501.816C719.003 500.007 718.752 497.797 719.594 496.313C721.037 495.298 723.46 495.668 725.353 495.717C727.34 504.476 730.378 512.846 733.016 521.44C736.936 534.213 740.78 546.871 745.043 559.546C728.824 559.552 710.022 560.025 694.011 559.407C692.441 553.003 689.822 544.979 687.891 538.515C683.627 524.13 679.2 509.794 674.611 495.51C678.217 495.524 681.823 495.488 685.427 495.401Z"/><path fill="#1E1E32" d="M698.634 532.155C700.842 532.268 702.058 540.57 701.33 541.31C700.842 541.806 695.757 541.688 694.573 541.68C692.664 539.546 692.021 536.209 691.161 533.4C693.938 532.877 695.803 532.504 698.634 532.155Z"/><path fill="#F2EDE3" d="M694.439 534.096C695.194 534.054 697.933 533.648 698.348 534.146C699.545 535.582 700.456 538.877 699.274 540.493C698.436 540.437 695.394 540.53 695.039 539.659C694.306 537.859 692.486 535.399 694.439 534.096Z"/><path fill="#010107" d="M685.289 509.686C689.414 509.327 695.687 507.48 694.534 514.498C694.039 517.51 695.194 516.404 695.141 518.015C693.238 518.005 689.283 518.446 687.716 517.743C686.143 517.038 684.465 511.357 685.289 509.686Z"/><path fill="#F2EDE3" d="M687.87 510.674C688.953 510.654 691.9 510.256 692.603 511.234C693.954 513.115 693.371 515.498 691.835 516.918C686.194 516.695 685.382 511.769 687.87 510.674Z"/><path fill="#010107" d="M694.766 545.067C704.149 545.264 703.467 544.253 705.056 553.827C693.976 554.791 697.816 553.274 694.766 545.067Z"/><path fill="#F2EDE3" d="M697.217 546.544C702.896 546.476 702.448 546.346 703.689 552.483C697.173 552.745 697.984 552.821 697.217 546.544Z"/><path fill="#010107" d="M690.95 521.131C697.254 521.199 696.875 520.839 698.078 527.27C698.375 528.862 698.277 529.28 696.626 529.546C694.533 529.664 692.438 529.738 690.342 529.767C689.563 526.453 687.361 522.35 690.95 521.131Z"/><path fill="#F2EDE3" d="M690.309 522.52C695.981 522.426 696.002 522.234 696.789 528.229C690.525 528.377 690.908 528.784 690.309 522.52Z"/><path fill="#171A3C" d="M707.641 548.74C712.965 547.716 728.334 548.482 734.711 548.455C735.077 548.454 735.699 549.478 735.918 549.787C730.096 550.631 716.508 549.618 709.99 549.829C709.193 549.854 708.275 549.173 707.641 548.74Z"/><path fill="#1E1E32" d="M706.135 536.209C710.076 535.995 714.137 536.177 718.13 536.223C722.629 536.275 727.526 536.036 731.994 536.472C732.428 536.514 732.395 537.51 732.414 537.771C724.662 538.248 716.525 537.706 708.745 537.806C706.812 537.831 706.309 538.151 706.135 536.209Z"/><path fill="#010107" d="M702.554 523.718C710.631 523.59 718.713 523.718 726.791 523.635C728.09 523.622 728.153 524.141 727.8 525.269C719.639 525.406 711.108 525.489 703.003 525.081C702.685 525.065 702.618 524.391 702.602 524.204L702.554 523.718Z"/><path fill="#010107" d="M698.948 511.251C702.361 510.841 723.047 510.302 724.631 511.912C722.085 512.757 700.486 512.961 699.394 511.725L698.948 511.251Z"/><path fill="#F2EDE3" d="M482.263 641.862C489.263 638.208 504.545 641.663 512.115 640.429C520.001 639.144 532.655 642.353 531.414 652.221C529.887 664.359 533.906 697.852 531.146 707.963C528.964 707.949 526.83 708.006 524.646 707.931C524.105 689.638 524.838 670.487 524.494 652.021C519.607 643.542 516.474 644.916 508.288 644.351C480.269 642.418 483.476 650.575 483.551 674.092L483.577 707.897C481.1 707.859 478.623 707.865 476.146 707.915C476.878 704.962 476.624 696.565 476.631 693.091C476.658 680.172 476.249 667.075 476.489 654.164C476.59 648.717 478.354 645.39 482.263 641.862Z"/><path fill="#F2EDE3" d="M808.626 716.364C809.083 718.621 808.293 720.392 810.237 719.135L810.347 718.489L811.485 718.605L811.552 719.143C812.007 729.453 815.789 735.726 824.989 740.658C825.498 747.683 825.953 753.759 825.922 760.792C819.516 762.985 805.611 766.64 802.177 772.836C800.776 775.364 800.136 779.56 798.252 780.358L796.893 780.107C795.271 777.212 797.354 746.777 796.754 739.909C796.641 739.865 796.528 739.821 796.416 739.777L796.405 739.727C796.787 739.163 796.838 739.162 797.028 738.424C797.821 737.681 798.781 737.108 799.657 736.456C807.044 730.961 807.81 724.834 808.626 716.364Z"/><path fill="#1E1E32" d="M808.626 716.364C809.083 718.621 808.293 720.392 810.237 719.135C809.451 727.844 806.087 737.104 796.754 739.909C796.641 739.865 796.528 739.821 796.416 739.777L796.405 739.727C796.787 739.163 796.838 739.162 797.028 738.424C797.821 737.681 798.781 737.108 799.657 736.456C807.044 730.961 807.81 724.834 808.626 716.364Z"/><path fill="#F2EDE3" d="M476.146 707.915C478.623 707.865 481.1 707.859 483.577 707.897C483.637 708.621 483.655 709.256 483.678 709.977L483.494 737.046C483.413 763.79 485.129 762.946 511.514 762.605C527.305 762.401 524.9 747.696 524.789 736.256L524.618 710.219L524.646 707.931C526.83 708.006 528.964 707.949 531.146 707.963C531.098 708.603 531.149 709.401 531.173 710.061C532.244 717.816 531.109 728.891 531.374 736.198C532.311 762.063 532.635 768.708 503.996 766.595C499.761 766.294 489.876 766.86 484.129 766.463C478.113 762.351 477.986 762.038 476.501 754.867C476.92 749.545 476.519 738.484 476.576 732.832C476.628 727.747 476.841 714.378 476.121 709.969C475.659 709.049 475.708 708.832 476.146 707.915Z"/><path fill="#171A3C" d="M476.146 707.915C478.623 707.865 481.1 707.859 483.577 707.897C483.637 708.621 483.655 709.256 483.678 709.977L476.121 709.969C475.659 709.049 475.708 708.832 476.146 707.915Z"/><path fill="#171A3C" d="M524.646 707.931C526.83 708.006 528.964 707.949 531.146 707.963C531.098 708.603 531.149 709.401 531.173 710.061C528.996 710.12 526.792 710.189 524.618 710.219L524.646 707.931Z"/><path fill="#F2EDE3" d="M790.246 435.15C793.857 434.052 802.191 434.618 806.014 435.541C807.845 435.983 808.185 436.795 807.939 438.499C807.784 442.098 811.151 436.839 813.247 437.557C816.499 438.669 817.242 440.98 816.791 444.203C816.302 447.701 813.128 446.038 813.305 448.193C813.349 448.72 815.314 450.3 815.814 450.76C815.494 452.074 815.456 452.144 815.438 453.454C815.472 455 815.369 455.06 814.872 456.507L812.517 456.128C805.725 460.456 806.471 459.317 799.447 461.292C794.961 460.952 792.672 460.104 791.391 455.256C790.605 452.282 791.308 449.639 787.249 450.288C787.021 450.324 785.659 450.553 785.505 449.95C785.349 448.311 786.495 446.31 786.863 444.707C787.993 441.502 788.921 438.233 790.246 435.15Z"/><path fill="#3C3C4C" d="M815.438 453.454C815.472 455 815.369 455.06 814.872 456.507L812.517 456.128L815.438 453.454Z"/><path fill="#F2EDE3" d="M821.153 448.675C821.753 448.119 821.982 447.907 822.51 447.302C823.452 451.116 824.273 454.901 825.167 458.72L825.64 460.729C826.21 463.045 826.862 465.247 827.376 467.609C826.682 468.339 826.731 468.266 825.764 468.493C820.983 469.089 808.299 468.657 802.841 468.643C805.843 465.96 808.943 463.336 811.73 460.441C812.929 459.194 813.706 457.707 814.872 456.507C815.369 455.06 815.472 455 815.438 453.454C815.456 452.144 815.494 452.074 815.814 450.76C818.495 450.325 818.638 449.97 821.153 448.675Z"/><path fill="#1E1E32" d="M821.153 448.675C821.753 448.119 821.982 447.907 822.51 447.302C823.452 451.116 824.273 454.901 825.167 458.72L825.64 460.729C826.21 463.045 826.862 465.247 827.376 467.609C826.682 468.339 826.731 468.266 825.764 468.493C825.021 465.914 824.315 463.324 823.649 460.724C822.686 456.829 821.792 452.632 821.153 448.675Z"/><defs><linearGradient id="gradient_1" gradientUnits="userSpaceOnUse" x1="473.99136" y1="697.06775" x2="481.99945" y2="696.92334"><stop offset="0" stop-color="black"/><stop offset="1" stop-color="#28283B"/></linearGradient></defs><path fill="url(#gradient_1)" d="M480.811 640.231C481.544 640.945 481.74 641.012 482.263 641.862C478.354 645.39 476.59 648.717 476.489 654.164C476.249 667.075 476.658 680.172 476.631 693.091C476.624 696.565 476.878 704.962 476.146 707.915C475.708 708.832 475.659 709.049 476.121 709.969C476.841 714.378 476.628 727.747 476.576 732.832C476.519 738.484 476.92 749.545 476.501 754.867C475.966 754.214 475.913 753.284 475.714 752.361L475.624 752.788C474.459 749.624 475.39 742.273 475.071 739.289C474.097 730.163 476.748 666.029 474.662 662.12C474.403 651.794 472.994 648.017 480.811 640.231Z"/><path fill="#CDC9D0" d="M793.352 571.478C792.521 568.118 790.297 560.11 790.259 557.049L790.664 557.122C792.323 560.731 793.985 568.378 795.088 572.629C790.33 572.754 774.895 573.059 770.747 572.242C768.533 571.663 763.328 572 760.801 571.923C752.314 571.664 738.949 572.962 730.91 571.869C735.904 571.291 746.568 571.532 751.994 571.525L793.352 571.478Z"/><path fill="#F2EDE3" d="M769.506 498.12L769.884 499.051C771.24 502.214 779.851 530.568 779.147 531.654C777.878 531.904 776.299 524.913 776.078 523.992C774.074 515.648 770.966 507.369 768.996 499.057L769.506 498.12Z"/><path fill="#8485A3" d="M760.209 498.059C762.849 497.932 766.887 497.908 769.506 498.12L768.996 499.057C757.492 498.602 745.77 499.129 734.249 498.914C731.958 498.872 730.248 498.96 727.967 498.599C731.897 498.338 759.329 498.81 760.209 498.059Z"/><path fill="#F2EDE3" d="M770.485 535.031C767.627 532.533 771.19 531.682 773.747 532.032C782.29 533.204 791.214 533.593 799.755 534.82L800.016 535.679C801.917 541.528 802.914 548.443 803.124 554.572C797.949 554.293 771.594 551.756 771.004 545.901C771.052 545.483 770.909 544.848 770.853 544.479C769.809 543.204 769.496 542.72 770.545 541.425C770.589 540.504 770.635 540.564 770.165 539.846C768.976 538.582 769.118 537.638 770.183 536.4L770.485 535.031Z"/><path fill="#1E1E32" d="M770.165 539.846C771.972 539.992 783.285 541.326 784.142 542.269C786.776 545.166 771.502 541.716 770.545 541.425C770.589 540.504 770.635 540.564 770.165 539.846Z"/><path fill="#1E1E32" d="M770.485 535.031C771.582 535.092 786.744 536.547 783.808 538.326C783.087 538.763 777.1 537.65 775.504 537.415C773.718 537.144 771.943 536.805 770.183 536.4L770.485 535.031Z"/><path fill="#1E1E32" d="M770.853 544.479C772.848 544.52 772.816 544.544 774.768 544.9L778.495 545.587C779.714 545.814 783.33 546.057 783.503 547.596C782.925 548.603 773.02 546.124 771.004 545.901C771.052 545.483 770.909 544.848 770.853 544.479Z"/><path fill="#F2EDE3" d="M835.914 506.241C838.674 507.722 844.725 532.643 845.865 536.838L807.434 534.85C807.45 545.392 807.546 555.474 806.9 566.007C813.388 567.132 843.295 572.911 848.207 575.045L847.674 575.477C845.477 576.071 810.522 568.248 805.469 567.172C805.885 555.28 805.978 545.272 805.89 533.356C818.511 533.557 831.312 534.897 844.012 534.975C841.665 527.667 837.222 513.538 835.914 506.241Z"/><path fill="#F2EDE3" d="M688.066 694.814C690.412 694.002 692.976 695.218 693.831 697.548C694.687 699.879 693.519 702.465 691.206 703.364C689.67 703.961 687.931 703.682 686.659 702.635C685.387 701.587 684.78 699.934 685.072 698.312C685.364 696.69 686.509 695.352 688.066 694.814Z"/><path fill="#F2EDE3" d="M700.357 482.878C704.704 484.166 706.862 488.195 702.573 489.164C700.665 488.992 696.828 489.402 697.561 486.266C697.979 484.475 698.915 483.89 700.357 482.878Z"/><path fill="#F2EDE3" d="M785.243 430.734C788.542 431.14 799.245 430.098 800.686 431.874C798.268 432.157 785.985 433.092 785.243 430.734Z"/><path fill="#F2EDE3" d="M690.105 493.315C690.761 492.683 691.8 492.682 692.457 493.313C693.115 493.944 693.157 494.981 692.553 495.663C692.14 496.129 691.505 496.332 690.899 496.192C690.292 496.051 689.812 495.59 689.646 494.99C689.48 494.389 689.656 493.747 690.105 493.315Z"/><path fill="#F2EDE3" d="M712.428 492.854C713.088 492.577 713.851 492.854 714.178 493.491C714.506 494.127 714.288 494.909 713.679 495.285C713.241 495.555 712.688 495.557 712.247 495.29C711.807 495.022 711.554 494.53 711.592 494.017C711.631 493.503 711.953 493.054 712.428 492.854Z"/><path fill="#171A3C" d="M112.918 715.941L113.314 714.659C114.904 716.065 114.997 718.718 115.227 720.853L115.974 721.819C117.456 721.453 118.693 721.362 120.281 720.972C122.108 720.453 124.29 719.191 125.646 719.367L125.787 719.015C132.548 718.608 134.647 722.684 137.631 728.078C137.752 728.886 137.735 728.819 138.372 729.37C141.326 729.506 140.986 728.847 142.362 731.383C142.53 731.662 142.698 731.941 142.866 732.22C143.463 732.88 143.996 733.448 144.544 734.148C139.137 735.182 141.122 735.933 140.913 742.289C141.238 746.908 140.955 753.237 141.08 758.116C141.856 758.194 142.609 758.255 143.364 758.434C143.263 759.424 143.263 759.88 143.27 760.859C143.279 761.825 143.238 762.468 143.162 763.419L140.92 763.534L140.762 780.81C148.699 782.075 162.017 780.639 170.344 781.966C177.894 783.168 213.033 780.384 218.024 782.43C206.911 782.898 193.066 782.524 181.789 782.531L111.499 782.566C104.537 782.565 70.1134 783.368 65.886 782.176L65.4586 780.978C67.8575 780.504 78.5517 780.663 81.6302 780.664L113.996 780.631C114.076 769.398 113.97 758.165 113.678 746.936C108.417 745.948 104.972 744.658 100.583 741.113C98.1554 739.635 93.5915 732.757 97.2317 730.408C103.768 726.19 111.305 737.891 113.802 741.581C113.942 734.386 114.108 727.129 114.071 719.935C114.059 717.594 114.225 717.21 112.918 715.941Z"/><path fill="#F2EDE3" d="M125.787 719.015C132.548 718.608 134.647 722.684 137.631 728.078C137.752 728.886 137.735 728.819 138.372 729.37C141.326 729.506 140.986 728.847 142.362 731.383C142.53 731.662 142.698 731.941 142.866 732.22C143.463 732.88 143.996 733.448 144.544 734.148C139.137 735.182 141.122 735.933 140.913 742.289C141.238 746.908 140.955 753.237 141.08 758.116C139.847 757.936 139.884 757.99 138.797 757.468C136.093 752.835 135.054 749.266 129.45 747.805C128.202 747.749 128.174 747.711 126.938 747.325C124.344 748.625 121.151 749.934 118.25 750.115C117.621 749 117.498 749.192 116.205 749.486C116.222 744.296 115.924 739.313 115.993 734.032C116.033 731.021 116.252 724.459 115.974 721.819C117.456 721.453 118.693 721.362 120.281 720.972C122.108 720.453 124.29 719.191 125.646 719.367L125.787 719.015Z"/><path fill="#222D4E" d="M125.787 719.015C132.548 718.608 134.647 722.684 137.631 728.078C137.752 728.886 137.735 728.819 138.372 729.37C141.326 729.506 140.986 728.847 142.362 731.383C142.53 731.662 142.698 731.941 142.866 732.22C143.463 732.88 143.996 733.448 144.544 734.148C139.137 735.182 141.122 735.933 140.913 742.289C140.577 740.899 140.171 735.473 140.105 735.372L140.038 735.36C139.497 735.656 139.11 738.427 139.03 739.071L138.871 740.062C138.776 738.906 138.797 735.677 138.484 734.95C135.291 733.447 131.881 733.898 128.8 730.915C125.245 727.476 121.821 723.895 125.646 719.367L125.787 719.015Z"/><path fill="#F2EDE3" d="M126.643 720.706C131.124 721.645 136.664 727.638 136.063 731.75C131.586 730.635 124.85 726.915 126.465 721.36L126.643 720.706Z"/><path fill="#F2EDE3" d="M118.25 750.115C119.772 747.257 121.873 744.476 124.159 741.657C125.239 740.327 131.936 735.534 132.029 740.745C132.065 742.767 128.674 745.996 126.938 747.325C124.344 748.625 121.151 749.934 118.25 750.115Z"/><path fill="#222D4E" d="M116.205 749.486C118.676 745.717 126.771 731.304 133.218 737.241C133.919 737.894 134.327 738.801 134.352 739.758C134.445 742.662 131.188 745.82 129.45 747.805C128.202 747.749 128.174 747.711 126.938 747.325C128.674 745.996 132.065 742.767 132.029 740.745C131.936 735.534 125.239 740.327 124.159 741.657C121.873 744.476 119.772 747.257 118.25 750.115C117.621 749 117.498 749.192 116.205 749.486Z"/><path fill="#1E1E32" d="M138.871 740.062L139.03 739.071C139.11 738.427 139.497 735.656 140.038 735.36L140.105 735.372C140.171 735.473 140.577 740.899 140.913 742.289C141.238 746.908 140.955 753.237 141.08 758.116C139.847 757.936 139.884 757.99 138.797 757.468C138.788 752.12 138.694 745.288 138.871 740.062Z"/><path fill="#F2EDE3" d="M123.85 751.34C126.055 757.567 130.251 760.901 136.761 762.9C137.892 763.247 137.891 763.045 138.859 763.666C138.649 769.535 138.911 774.75 138.573 780.81C132.533 780.22 122.486 780.673 115.976 780.594C115.911 771.462 115.904 762.33 115.953 753.198C119.018 752.638 120.87 752.107 123.85 751.34Z"/><defs><linearGradient id="gradient_2" gradientUnits="userSpaceOnUse" x1="113.7494" y1="781.58527" x2="113.78121" y2="763.9527"><stop offset="0" stop-color="#010005"/><stop offset="1" stop-color="#24202C"/></linearGradient></defs><path fill="url(#gradient_2)" d="M138.859 763.666L140.92 763.534L140.762 780.81C148.699 782.075 162.017 780.639 170.344 781.966C177.894 783.168 213.033 780.384 218.024 782.43C206.911 782.898 193.066 782.524 181.789 782.531L111.499 782.566C104.537 782.565 70.1134 783.368 65.886 782.176L65.4586 780.978C79.2468 781.734 95.916 780.858 109.961 781.156C115.299 781.27 134.343 781.418 138.573 780.81C138.911 774.75 138.649 769.535 138.859 763.666Z"/><path fill="#F2EDE3" d="M98.5914 731.313C104.449 732.019 106.476 735.008 109.94 739.79C111.16 741.474 111.723 742.397 111.338 744.356C106.519 742.906 96.1612 737.675 98.5914 731.313Z"/><path fill="#F2EDE3" d="M127.109 749.383C132.856 750.455 134.974 753.854 136.478 759.436C136.538 759.657 135.902 760.092 135.888 760.104C131.209 758.4 128.116 756.881 126.323 751.735C126.113 751.132 126.295 750.467 126.679 749.978L127.109 749.383Z"/><defs><linearGradient id="gradient_3" gradientUnits="userSpaceOnUse" x1="870.51599" y1="710.65082" x2="900.40369" y2="714.0307"><stop offset="0" stop-color="#252032"/><stop offset="1" stop-color="#14173B"/></linearGradient></defs><path fill="url(#gradient_3)" d="M891.49 673.764C891.996 666.723 890.783 663.441 888.441 656.64C887.45 653.76 887.211 650.08 889.972 647.71C896.861 643.272 899.697 651.584 897.348 656.829C893.124 666.258 893.775 671.322 894.017 681.588C895.208 682.026 895.137 682.086 895.947 683.107C895.499 683.899 895.044 684.687 894.581 685.47C893.987 686.275 893.945 686.602 893.575 687.574C893.855 693.12 893.179 705.922 894.087 710.228C895.203 710.755 895.207 710.845 895.567 712.033C895.649 712.641 895.708 713.237 895.772 713.847C895.835 714.645 895.919 715.086 896.061 715.881C894.903 716.475 894.203 716.498 894.054 717.4C893.218 722.444 893.408 737.626 894.266 741.997C895.339 742.734 895.253 742.641 895.621 743.919L895.452 744.595C894.453 746.132 894.306 746.345 893.657 748.033C894.176 758.101 893.711 770.371 893.803 780.703L891.899 780.448C891.901 777.665 892.28 748.611 891.303 745.65C888.367 743.967 878.364 739.452 876.836 736.855C869.407 724.226 884.112 725.296 889.908 736.909L891.151 739.08C891.764 738.212 891.486 738.554 891.446 737.082C891.554 731.058 891.81 720.709 891.154 714.947C885.816 713.08 882.855 711.697 878.362 707.951C873.065 703.537 873.334 695.72 881.668 698.355C885.631 699.607 888.653 704.182 890.409 707.966C891.945 705.519 890.694 690.522 891.258 685.672C885.706 683.946 874.793 679.159 874.871 671.723C874.9 668.915 878.343 667.814 880.864 668.643C885.911 670.304 888.216 674.226 890.675 678.567C891.058 676.519 890.076 674.68 891.49 673.764Z"/><path fill="#F2EDE3" d="M891.258 685.672C891.587 687.829 891.768 709.227 891.17 709.649C890.608 709.326 890.536 708.53 890.409 707.966C891.945 705.519 890.694 690.522 891.258 685.672Z"/><path fill="#F2EDE3" d="M891.49 673.764C891.579 674.65 891.876 678.821 891.242 679.267C890.944 679.199 890.82 678.802 890.675 678.567C891.058 676.519 890.076 674.68 891.49 673.764Z"/><path fill="#F2EDE3" d="M877.663 729.215C883.639 730.897 886.496 734.021 889.065 739.774C889.463 740.665 889.162 741.166 888.754 741.937C883.844 740.386 874.049 735.598 877.663 729.215Z"/><path fill="#F2EDE3" d="M877.667 670.024C884.679 670.969 886.989 675.658 889.475 681.94C889.553 682.137 888.831 682.631 888.873 682.598C885.773 681.47 873.605 674.816 877.23 670.55L877.667 670.024Z"/><path fill="#F2EDE3" d="M877.058 699.305C882.836 699.964 889.815 705.955 889.241 711.693C884.41 709.988 875.299 705.639 877.058 699.305Z"/><path fill="#F2EDE3" d="M892.179 648.228C898.961 649.448 895.037 658.73 893.096 662.412C891.356 661.608 889.824 655.507 889.557 653.742C889.256 651.758 890.984 649.686 892.179 648.228Z"/><path fill="#222D4E" d="M113.966 684.134C113.925 681.904 113.951 675.699 113.512 673.617C112.383 668.68 108.01 661.898 111.44 657.078C111.972 656.127 113.79 656.309 114.413 656.169C118.398 655.266 121.148 661.961 119.776 664.745C115.397 673.628 115.922 677.351 116.138 687.065C118.532 682.497 122.749 674.58 129.198 677.191C130.152 678.199 130.962 678.934 130.721 680.487C129.628 687.529 121.733 690.262 116.18 691.999C115.521 699.894 115.84 709.234 116.571 717.144C120.462 719.129 114.674 719.688 120.281 720.972C118.693 721.362 117.456 721.453 115.974 721.819L115.227 720.853C114.997 718.718 114.904 716.065 113.314 714.659L112.918 715.941C107.048 715.524 94.568 707.823 96.2782 702.551C100.201 690.458 112.271 708.938 113.847 711.493C113.631 704.937 113.649 698.07 113.575 691.487C112.422 690.803 110.492 689.939 109.225 689.327C110.315 688.679 110.553 688.454 111.535 687.626C112.837 685.061 114.176 686.218 113.966 684.134Z"/><path fill="#F2EDE3" d="M98.6393 700.924C99.5337 700.948 100.615 701.015 101.495 701.045C105.015 701.163 112.037 710.854 111.678 713.623L110.958 713.388C106.96 712.116 96.6203 706.956 98.4595 701.483L98.6393 700.924Z"/><path fill="#F2EDE3" d="M126.911 678.391C132.146 681.915 122.767 687.406 119.628 688.584C119.362 688.609 118.746 688.709 118.483 688.608C118.307 688.54 118.171 688.396 118.115 688.215C117.526 686.292 123.191 679.805 126.112 678.712L126.911 678.391Z"/><path fill="#F2EDE3" d="M113.367 658.185C120.057 658.778 117.739 665.642 115.595 669.846C112.291 668.883 111.64 661.567 113.367 658.185Z"/><defs><linearGradient id="gradient_4" gradientUnits="userSpaceOnUse" x1="905.51025" y1="782.1098" x2="904.91956" y2="732.71625"><stop offset="0" stop-color="#04030C"/><stop offset="1" stop-color="#2F2F4E"/></linearGradient></defs><path fill="url(#gradient_4)" d="M922.573 741.281C923.033 739.146 922.699 733.421 923.707 732.701L923.563 732.773L923.788 732.77C924.366 734.361 922.669 744.032 924.511 745.266C924.66 748.167 924.857 750.472 924.494 753.384C924.63 753.842 924.744 754.722 925.236 754.87C927.945 752.846 930.543 745.735 936.777 746.792C939.519 747.21 939.525 750.165 938.809 752.4C937.517 756.43 935.158 757.98 931.752 760.022C929.23 761.533 926.19 761.259 924.736 762.136C924.485 763.07 924.694 766.246 924.48 767.818C924.557 772.11 924.583 776.403 924.558 780.695C929.793 780.695 954.48 780.058 957.476 781.559C956.226 783.262 944.128 782.722 941.638 782.715L917.073 782.659L877.724 782.587C871.403 782.575 862.44 782.808 856.272 782.409C855.574 781.551 855.875 781.937 854.264 781.662C857.318 780.011 886.684 782.319 891.715 780.564L891.899 780.448L893.803 780.703L922.723 780.651C922.751 774.34 922.657 768.028 922.442 761.72C917.509 759.775 900.186 752.31 910.21 745.631C912.096 745.467 913.623 745.826 915.223 746.953C918.061 749.193 919.993 750.994 921.257 754.492L922.712 753.848C922.369 749.973 922.512 745.177 922.573 741.281Z"/><path fill="#1E1E32" d="M924.494 753.384C924.63 753.842 924.744 754.722 925.236 754.87C927.945 752.846 930.543 745.735 936.777 746.792C939.519 747.21 939.525 750.165 938.809 752.4C937.517 756.43 935.158 757.98 931.752 760.022C929.23 761.533 926.19 761.259 924.736 762.136C924.485 763.07 924.694 766.246 924.48 767.818C923.783 767.01 923.741 761.351 924.13 760.718C926.255 757.259 923.731 758.136 924.494 753.384Z"/><path fill="#F2EDE3" d="M934.919 748.29C937.484 748.844 937.687 749.593 936.77 752.125C935.287 756.217 931.87 757.733 928.09 759.016C927.416 759.032 926.637 759.154 926.05 758.863C924.699 756.708 932.881 749.644 934.919 748.29Z"/><path fill="#F2EDE3" d="M910.83 747.058C912.029 747.609 912.749 747.934 914.004 748.342C916.35 750.423 918.364 752.205 919.45 755.253L920.645 758.702C915.038 756.709 907.944 754.231 910.83 747.058Z"/><path fill="#222D4E" d="M910.21 745.631C912.096 745.467 913.623 745.826 915.223 746.953L914.004 748.342C912.749 747.934 912.029 747.609 910.83 747.058C910.665 746.299 910.643 746.356 910.21 745.631Z"/><path fill="#F2EDE3" d="M922.712 753.848C922.638 754.263 922.529 755.326 922.281 755.716C921.872 755.91 921.381 754.708 921.257 754.492L922.712 753.848Z"/><path fill="#222D4E" d="M922.42 728.231C922.469 725.717 922.894 717.569 922.271 715.157C921.158 710.842 917.086 704.486 920.176 699.664C921.703 697.282 924.575 697.014 926.576 698.912C931.231 703.475 927.503 709.979 924.893 714.283C924.875 718.255 924.996 722.613 924.752 726.541C927.267 723.079 930.575 718.042 934.999 717.551C941.695 716.807 939.292 724.485 936.543 727.263C932.56 731.286 929.456 731.778 924.54 732.754C924.537 735.149 924.754 743.538 924.511 745.266C922.669 744.032 924.366 734.361 923.788 732.77L923.563 732.773L923.707 732.701C922.699 733.421 923.033 739.146 922.573 741.281C922.463 738.388 922.476 735.583 922.452 732.694C921.835 732.536 921.56 732.545 921.008 732.422C916.782 731.487 912.05 729.319 909.35 725.815C906.537 722.166 907.477 716.172 913.306 717.765C919.281 719.399 920.23 722.964 922.42 728.231Z"/><path fill="#F2EDE3" d="M909.893 719.767C918.043 719.718 917.874 723.601 920.308 730.111C914.771 728.359 909.703 726.185 909.893 719.767Z"/><path fill="#F2EDE3" d="M935.895 719.405C940.85 723.114 930.803 728.903 927.653 730.018C926.773 729.904 926.044 729.745 926.609 728.582C928.902 723.862 931.065 721.328 935.895 719.405Z"/><path fill="#F2EDE3" d="M922.842 699.757C929.253 701.085 926.501 707.241 924.453 711.286C922.206 713.111 920.055 704.32 922.842 699.757Z"/><path fill="#1E1E32" d="M138.176 717.113C136.024 712.691 133.866 708.013 135.62 703.001C137.114 698.733 143.051 698.773 144.421 703.258C145.88 708.034 143.498 712.528 140.909 716.484C141.448 720.455 140.347 725.508 142.164 727.023C144.261 724.261 150.026 717.007 154.261 720.249C154.964 720.791 155.409 721.601 155.49 722.485C156.11 728.661 149.078 732.226 144.544 734.148C143.996 733.448 143.463 732.88 142.866 732.22C142.698 731.941 142.53 731.662 142.362 731.383C140.986 728.847 141.326 729.506 138.372 729.37C137.735 728.819 137.752 728.886 137.631 728.078C138.429 724.542 137.685 720.961 138.176 717.113Z"/><path fill="#F2EDE3" d="M142.362 731.383C155.291 710.231 158.074 729.576 142.866 732.22C142.698 731.941 142.53 731.662 142.362 731.383Z"/><path fill="#F2EDE3" d="M142.164 727.023C139.489 734.687 140.871 716.712 140.909 716.484C141.448 720.455 140.347 725.508 142.164 727.023Z"/><path fill="#F2EDE3" d="M138.176 717.113C138.716 719.146 138.544 726.96 138.372 729.37C137.735 728.819 137.752 728.886 137.631 728.078C138.429 724.542 137.685 720.961 138.176 717.113Z"/><path fill="#F2EDE3" d="M138.96 701.709C145.949 702.873 142.155 710.353 140.157 714.269C138.442 714.794 137.973 711.535 137.563 710.244C136.452 706.742 137.078 704.641 138.96 701.709Z"/><path fill="#1E1E32" d="M894.017 681.588C895.301 679.863 906.112 664.37 910.992 673.491C911.731 674.873 908.863 680.082 907.851 680.858C903.949 685.434 899.438 687.39 893.575 687.574C893.945 686.602 893.987 686.275 894.581 685.47C895.044 684.687 895.499 683.899 895.947 683.107C895.137 682.086 895.208 682.026 894.017 681.588Z"/><path fill="#F2EDE3" d="M895.947 683.107C898.182 679.493 901.912 674.106 906.191 673.169C910.585 672.207 907.664 678.39 906.327 679.789C903.311 682.946 898.879 685.285 894.581 685.47C895.044 684.687 895.499 683.899 895.947 683.107Z"/><path fill="#1E1E32" d="M116.571 717.144C119.464 711.989 121.672 707.267 127.777 705.123C134.233 702.855 134.98 708.205 132.218 712.85C130.462 715.804 128.244 716.85 125.787 719.015L125.646 719.367C124.29 719.191 122.108 720.453 120.281 720.972C114.674 719.688 120.462 719.129 116.571 717.144Z"/><path fill="#F2EDE3" d="M130.127 706.464C132.41 707.217 131.385 709.815 130.516 711.481C128.247 715.832 124.127 717.255 119.668 718.449C118.722 718.517 118.392 718.185 118.952 717.272C122.427 711.612 123.403 708.381 130.127 706.464Z"/><path fill="#1E1E32" d="M894.266 741.997C897.243 737.544 899.72 732.406 905.546 731.179C913.533 729.497 910.309 738.102 907.214 741.387C902.844 746.024 899.086 746.286 893.657 748.033C894.306 746.345 894.453 746.132 895.452 744.595L895.621 743.919C895.253 742.641 895.339 742.734 894.266 741.997Z"/><path fill="#F2EDE3" d="M895.621 743.919C897.881 740.54 902.157 733.147 906.25 732.984C913.031 732.715 902.498 746.085 895.452 744.595L895.621 743.919Z"/><path fill="#1E1E32" d="M894.087 710.228C897.355 705.818 898.653 701.128 905.294 699.684C911.066 698.429 912.866 703.574 909.099 707.542C904.771 712.456 902.096 714.133 896.061 715.881C895.919 715.086 895.835 714.645 895.772 713.847C895.708 713.237 895.649 712.641 895.567 712.033C895.207 710.845 895.203 710.755 894.087 710.228Z"/><path fill="#F2EDE3" d="M895.567 712.033L895.831 711.615C897.17 709.454 897.788 707.737 899.525 705.763C905.727 698.712 913.76 700.568 904.638 709.145C901.623 711.98 899.58 712.583 895.772 713.847C895.708 713.237 895.649 712.641 895.567 712.033Z"/><path fill="#222D4E" d="M141.08 758.116C143.62 754.219 145.623 749.862 150.502 748.572C152.365 748.08 156.028 748.798 156.018 750.987C155.985 758.202 148.578 761.887 143.162 763.419C143.238 762.468 143.279 761.825 143.27 760.859C143.263 759.88 143.263 759.424 143.364 758.434C142.609 758.255 141.856 758.194 141.08 758.116Z"/><path fill="#F2EDE3" d="M143.364 758.434C145.545 756.071 147.521 750.826 151.26 750.448C156.096 749.959 152.15 756.101 150.736 757.339C148.026 759.709 146.49 760.213 143.27 760.859C143.263 759.88 143.263 759.424 143.364 758.434Z"/><path fill="#1E1E32" d="M109.225 689.327C105.26 687.615 94.7702 679.881 100.505 675.434C106.009 671.167 113.52 684.869 113.352 684.76C113.628 684.694 113.817 684.33 113.966 684.134C114.176 686.218 112.837 685.061 111.535 687.626C110.553 688.454 110.315 688.679 109.225 689.327Z"/><path fill="#F2EDE3" d="M100.743 676.853C107.097 676.847 110.59 681.664 111.535 687.626C106.288 686.762 100.927 682.527 100.743 676.853Z"/><path fill="#1E1E32" d="M830.254 425.89C835.74 431.807 840.862 438.027 846.262 444.009C847.732 445.637 845.759 446.406 845.646 446.295C840.013 440.7 834.842 434.026 829.474 427.984C829.752 427.293 830.012 426.595 830.254 425.89Z"/></svg>