<?xml version="1.0" encoding="utf-8" ?><svg xmlns="http://www.w3.org/2000/svg" xmlns:xlink="http://www.w3.org/1999/xlink" width="1024" height="1024" viewBox="0 0 1024 1024"><path fill="#F2EDE3" d="M0 0L1024 0L1024 1024L0 1024L0 0Z"/><path fill="#222D4E" d="M630.668 151.206C634.055 150.991 637.448 150.874 640.842 150.854C792.739 148.891 873.657 328.839 765.33 439.005C774.856 449.817 788.746 464.694 797.346 475.777C798.489 475.281 799.64 474.804 800.798 474.343C805.672 472.384 814.112 471.857 817.965 474.884C825.028 480.432 835.664 493.7 841.375 500.222C849.175 509.095 857.057 517.897 865.018 526.625C880.736 544.142 896.488 561.523 911.998 579.273C923.441 592.369 926.121 608.564 918.716 624.461C907.098 649.401 871.789 656.006 852.968 635.342C847.961 629.844 843.385 623.858 838.56 618.139C827.653 605.363 816.882 592.472 806.251 579.466C792.75 563.039 778.768 546.981 765.161 530.642C757.234 521.123 757.123 513.586 762.75 502.747C761.719 501.037 756.138 494.267 754.692 492.472C747.255 483.231 739.614 474.156 731.774 465.253C717.377 472.427 713.513 475.397 697.458 481.087L697.445 789.375C697.659 810.574 695.713 826.386 680.025 842.673C666.441 856.776 649.437 861.679 630.375 861.763C598.177 861.906 565.941 861.809 533.699 861.752L398.495 861.757L331.132 861.858C318.942 861.854 302.21 862.596 290.634 860.609C266.182 856.412 244.062 833.052 241.051 808.441C240.12 800.829 240.291 793.346 240.297 785.837L240.272 756.46L240.19 647.359L240.139 277.246C240.104 255.739 242.4 239.493 258.691 223.327C267.475 214.559 278.662 208.593 290.836 206.182C300.467 204.256 313.677 204.835 323.864 204.869L363.947 204.955L517.746 204.912C550.274 172.705 584.505 154.935 630.668 151.206Z"/><path fill="#F2EDE3" d="M685.144 484.739L685.309 706.39L685.35 771.766C685.346 775.609 685.416 779.548 685.335 783.384C685.013 791.373 685.874 800.361 684.519 808.226C680.514 831.47 659.535 849.537 636 849.649C610.675 849.769 585.837 849.71 560.75 849.677L420.507 849.695C393.109 849.851 365.711 849.841 338.314 849.666C327.925 849.658 303.951 850.22 294.889 848.881C284.679 847.314 275.21 842.608 267.796 835.417C257.539 825.619 252.514 812.977 252.467 798.965C252.339 760.867 252.384 722.741 252.362 684.646L252.451 436.042L252.38 319.553L252.292 283.512C252.291 276.039 252.03 267.618 252.932 260.28C255.171 242.802 267.889 227.149 284.124 220.632C295.637 216.01 308.83 216.979 321.046 217.002L357.336 217.048L507.681 216.822C502.473 225.232 497.583 231.198 492.733 240.37C475.92 272.167 470.724 304.451 473.968 339.886C478.443 374.505 489.012 398.603 509.82 426.13C523.789 442.55 536.846 454.916 555.608 466.059C594.674 489.262 641.297 495.353 685.144 484.739Z"/><path fill="#8B9DC9" d="M509.82 426.13C465.409 426.522 420.996 426.55 376.585 426.215C366.061 426.191 355.536 426.23 345.012 426.333C331.73 426.424 314.914 428.771 308.243 413.823C306.91 410.838 306.069 406.91 306.036 403.606C305.926 392.65 306.203 381.675 305.934 370.714C305.835 366.365 305.714 361.558 306.709 357.345C307.531 353.719 309.31 350.38 311.861 347.675C320.609 338.41 329.72 339.744 341.229 339.778L367.124 339.85C402.384 339.854 438.828 340.601 473.968 339.886C478.443 374.505 489.012 398.603 509.82 426.13Z"/><path fill="#222D4E" d="M341.825 713.714C370.143 709.817 396.25 729.64 400.102 757.965C403.953 786.29 384.088 812.364 355.757 816.17C327.491 819.968 301.489 800.158 297.646 771.897C293.803 743.637 313.571 717.603 341.825 713.714Z"/><path fill="#F2EDE3" d="M347.369 725.341C369.225 724.447 387.677 741.42 388.608 763.275C389.54 785.129 372.599 803.61 350.747 804.58C328.84 805.552 310.303 788.56 309.37 766.652C308.436 744.744 325.459 726.237 347.369 725.341Z"/><path fill="#222D4E" d="M368.814 747.057C372.51 746.667 376.128 747.364 376.811 751.85C376.946 753.318 376.11 755.661 375.145 756.712C365.781 766.915 354.678 775.51 345.384 785.785C344.007 787.307 342.087 789.118 339.93 789.038C335.702 788.882 332.395 784.497 329.727 781.659C324.741 776.388 315.265 767.914 328.988 765.362C331.71 764.856 337.509 772.241 339.396 774.38L357.25 757.36C360.408 754.357 365.358 749.402 368.814 747.057Z"/><path fill="#222D4E" d="M348.001 449.212C376.451 448.427 400.145 470.868 400.904 499.32C401.663 527.771 379.201 551.444 350.748 552.177C322.333 552.91 298.697 530.482 297.939 502.067C297.181 473.653 319.587 449.996 348.001 449.212Z"/><path fill="#F2EDE3" d="M346.799 461.376C368.521 459.863 387.355 476.25 388.86 497.972C390.366 519.694 373.973 538.523 352.25 540.021C330.538 541.518 311.72 525.135 310.215 503.423C308.711 481.711 325.088 462.888 346.799 461.376Z"/><path fill="#222D4E" d="M370.028 482.466C377.037 482.953 379.269 487.011 375.084 493.13C372.953 496.247 368.922 499.384 366.158 502.092C361.637 506.521 356.763 510.768 352.088 515.038C340.213 526.926 341 527.768 329.312 515.592C327.19 513.549 322.742 509.792 322.232 506.974C321.959 505.411 322.39 503.808 323.409 502.593C328.912 495.943 336.211 505.484 340.217 509.359C348.939 503.063 361.891 487.441 370.028 482.466Z"/><path fill="#222D4E" d="M342.815 582.208C370.905 578.514 396.699 598.213 400.53 626.284C404.361 654.356 384.787 680.246 356.734 684.213C328.488 688.208 302.381 668.47 298.523 640.204C294.666 611.939 314.531 585.928 342.815 582.208Z"/><path fill="#F2EDE3" d="M344.641 594.222C366.122 591.469 385.801 606.564 388.708 628.025C391.616 649.486 376.664 669.272 355.224 672.335C333.565 675.429 313.531 660.289 310.594 638.609C307.656 616.928 322.94 597.003 344.641 594.222Z"/><path fill="#222D4E" d="M369.664 615.344C370.902 615.244 372.288 615.217 373.475 615.661C375.067 616.257 376.914 617.763 377.491 619.404C377.942 620.685 377.649 622.113 376.931 623.236C374.175 627.544 343.859 656.713 340.402 656.922C336.429 657.161 332.247 651.725 329.73 649.109C325.606 645.088 315.633 636.334 329.78 633.326C331.706 632.917 338.144 640.305 339.848 642.077C348.337 634.735 361.786 621.414 369.664 615.344Z"/><path fill="#222D4E" d="M314.614 261.587C320.248 261.184 328.612 261.425 334.492 261.421L369.476 261.392C394.929 261.377 420.529 261.361 445.992 261.47C448.183 261.585 450.084 261.583 452.14 262.474C457.695 264.881 460.204 272.844 457.612 278.148C456.06 281.322 452.76 283.314 449.383 284.456C442.521 284.984 433.362 284.671 426.276 284.628L388.572 284.495L338.869 284.56C330.72 284.577 321.921 284.912 313.814 284.097C310.978 283.353 307.781 280.471 306.816 277.847C303.612 269.136 307.266 264.775 314.614 261.587Z"/><path fill="#222D4E" d="M498.489 731.25C509.323 731.09 527.869 728.033 527.873 744.268C527.877 760.333 507.884 757.026 496.852 757.022L454.75 756.972C447.351 757.034 435.275 758.271 429.297 753.475C421.881 747.524 424.869 732.783 434.893 731.723C441.869 730.984 449.504 731.294 456.575 731.284L498.489 731.25Z"/><path fill="#222D4E" d="M436.874 600.724L489.772 600.553C497.397 600.537 510.009 600.033 517.299 600.889C530.517 602.441 532.769 624.249 515.386 626.182L462.594 626.221C454.387 626.198 444.109 626.505 436.039 625.799C421.549 624.53 419.882 603.138 436.874 600.724Z"/><path fill="#222D4E" d="M437.933 469.727L489.353 469.569C498.478 469.56 507.709 469.311 516.799 469.873C523.112 470.264 527.199 474.155 527.818 480.464C528.637 488.82 524.45 494.542 515.915 495.171C498.494 495.02 481.072 494.993 463.65 495.092C456.58 495.107 433.582 496.449 429.424 492.477C420.978 484.411 424.544 470.902 437.933 469.727Z"/><path fill="#222D4E" d="M314.322 295.109C340.769 294.325 368.003 295.303 394.511 294.94C401.325 294.847 415.426 293.327 418.155 301.215C420.882 309.099 417.639 314.459 410.141 317.547C391.582 318.418 370.037 317.068 350.948 317.572C341.112 316.364 322.959 319.521 313.944 317.204C303.104 314.418 302.372 300.401 314.322 295.109Z"/><path fill="#222D4E" d="M433.495 770.679C442.912 770.296 454.395 770.65 463.991 770.701L522.25 770.89L583.812 770.671C593.41 770.625 602.802 770.486 612.605 770.479C617.598 770.476 624.414 773.68 620.642 780.16C619.693 781.789 617.446 782.394 615.625 782.662C594.501 782.28 572.605 782.675 551.426 782.757L478.664 782.638C464.339 782.625 450.204 782.932 435.712 782.926C429.812 782.923 424.583 780.482 427.833 773.121C428.534 771.53 431.883 770.954 433.495 770.679Z"/><path fill="#222D4E" d="M430.798 509.14C443.24 508.606 459.003 509.091 471.663 509.11L542.653 508.986L591.152 508.958C599.133 508.942 607.469 508.734 615.444 509.011C617.253 509.218 619.523 509.476 620.537 511.208C623.061 515.518 621.936 518.118 618.068 520.636C613 521.446 589.708 521.028 583.449 521.026L507.937 520.981L458.103 520.99C449.772 521.023 440.733 521.397 432.499 520.755C426.737 520.306 424.349 512.855 430.798 509.14Z"/><path fill="#222D4E" d="M546.24 640.25L592.84 640.107C600.162 640.094 607.582 639.999 614.901 640.06C623.734 640.134 623.39 651.865 615.823 652.159C602.849 652.665 589.685 652.264 576.676 652.215L504.292 652.36L455.747 652.333C448.329 652.334 440.91 652.407 433.494 652.371C430.437 652.357 427.821 649.748 427.34 646.814C426.791 643.469 428.538 640.832 432.026 640.624C436.44 640.359 440.841 640.454 445.261 640.467L468.826 640.505L546.24 640.25Z"/><path fill="#F2EDE3" d="M633.74 192.204C637.125 191.728 642.351 191.886 645.786 191.953C693.616 192.88 738.482 220.782 759.29 264.059C761.932 269.553 764.276 274.807 765.888 280.623C757.791 280.416 747.051 278.87 740.979 284.566C738.039 287.311 736.364 291.148 736.349 295.17C736.169 313.57 759.674 309.859 772.235 310.012C772.575 315.696 772.485 321.797 772.508 327.52C765.269 327.541 744.536 325.607 739.341 329.641C738.144 330.57 737.312 331.943 737.262 333.49C737.206 335.266 738.09 337.448 739.228 338.792C742.502 342.656 764.622 341.112 770.757 341.365C768.094 352.47 765.781 361.424 761.201 372.06C748.019 402.677 721.527 427.208 690.736 439.511C683.442 442.362 675.915 444.578 668.239 446.134C633.951 452.782 598.425 445.523 569.493 425.958C538.981 405.163 522.036 376.592 515.345 340.753C518.639 340.691 521.173 340.937 523.694 338.424C526.657 335.47 526.547 331.542 523.329 328.849C520.43 326.423 517.588 327.039 514.117 327.254C513.343 321.892 513.618 315.356 513.919 309.961C517.636 308.611 520.307 307.594 523.073 304.496C525.65 301.644 526.921 297.847 526.579 294.019C526.125 288.43 523.392 285.349 519.47 281.94C534.643 230.719 581.08 196.233 633.74 192.204Z"/><path fill="#222D4E" d="M626.127 247.613C667.626 243.918 704.279 274.528 708.039 316.022C711.799 357.516 681.246 394.216 639.759 398.041C598.179 401.875 561.379 371.24 557.61 329.654C553.842 288.068 584.535 251.316 626.127 247.613Z"/><path fill="#F2EDE3" d="M627.658 259.966C662.395 257.084 692.871 282.952 695.671 317.695C698.471 352.439 672.531 382.854 637.781 385.572C603.147 388.281 572.856 362.446 570.065 327.819C567.274 293.191 593.037 262.839 627.658 259.966Z"/><path fill="#222D4E" d="M671.385 293.395C675.813 293.319 679.036 295.262 679.148 299.814C679.278 305.04 669.494 312.322 666.088 315.61L640.75 340.363C634.653 346.251 628.872 352.459 622.537 358.085C621.12 359.817 616.802 360.088 615.163 358.638C608.556 352.793 602.081 345.706 595.882 339.442C593.414 336.873 588.978 332.883 588.329 329.376C587.199 323.152 593.717 320.469 598.111 324.238C605.255 330.367 612.219 337.598 619.258 343.919L649.327 314.242C654.922 308.687 665.363 298.124 671.385 293.395Z"/><path fill="#8B9DC9" d="M806.16 484.48C810.982 484.446 812.864 486.306 816.055 489.814C831.543 506.848 846.531 524.359 861.955 541.448L888.903 571.695C893.7 577.088 898.732 582.441 903.237 588.06C921.279 610.564 904.039 636.944 876.92 635.4C863.869 632.508 858.164 623.094 850.132 613.351C843.545 605.337 836.91 597.361 830.23 589.423L794.242 546.519C790.108 541.629 767.795 517.989 771.832 512.961C777.492 505.914 798.479 488.784 806.16 484.48Z"/><path fill="#222D4E" d="M742.955 757.472C747.637 758.049 749.668 760.012 750.089 764.929C756.06 834.766 713.751 896.146 643.13 907.555C638.779 907.518 636.17 904.445 636.601 900.302C637.138 895.144 649.821 894.309 654.277 893.129C668.4 889.445 681.636 882.954 693.197 874.043C719.69 853.43 736.13 822.492 738.388 789C739.001 779.693 738.255 770.778 738.703 761.53C738.776 760.019 741.797 758.169 742.955 757.472Z"/><path fill="#222D4E" d="M605.353 102.958C609.104 103.21 613.38 106.025 612.377 110.478C611.269 113.868 605.644 115.845 602.834 117.24C585.447 125.872 567.893 134.848 551.737 145.658C546.346 149.342 541.014 153.11 535.741 156.961C532.864 159.07 526.968 163.897 524.022 165.162C516.726 163.656 512.991 158.607 519.967 153.495C545.485 134.8 576.123 114.902 605.353 102.958Z"/><path fill="#222D4E" d="M768.611 823.427C775.63 823.753 776.317 829.114 774.691 834.826C766.856 862.361 747.492 890.136 722.441 904.808C714.083 904.107 713.043 896.637 719.482 892.264C737.876 879.864 752.01 862.107 759.969 841.401C761.5 837.349 762.508 832.611 763.819 828.443C764.821 825.258 765.615 824.986 768.611 823.427Z"/><path fill="#222D4E" d="M527.036 105.425C527.663 105.436 528.381 105.416 529.004 105.537C530.722 105.871 532.792 106.963 533.729 108.504C534.603 109.94 534.763 111.347 534.336 112.946C533.415 116.397 486.386 162.765 481.569 165.607C481.264 165.59 480.959 165.573 480.654 165.555C478.506 165.385 476.528 164.321 475.202 162.623C474.222 161.354 473.969 159.973 474.199 158.411C474.392 157.105 476.291 154.888 477.172 154.003C483.85 147.302 492.664 138.27 499.38 131.983C504.811 126.898 522.371 108.307 527.036 105.425Z"/></svg>