<svg xmlns="http://www.w3.org/2000/svg" height="1024" preserveAspectRatio="none" style="display: block;" version="1.1" viewBox="0 0 2048 2048" width="1024">
<path d="M 0 0 L 2048 0 L 2048 2048 L 0 2048 L 0 0 z" fill="rgb(242,237,227)" transform="translate(0,0)"></path>
<path d="M 208.58 624.68 C 223.209 617.137 241.743 608.912 256.895 601.655 L 378.358 544.44 L 614.782 433.608 C 650.176 417.258 685.477 400.706 720.682 383.954 C 734.141 377.629 764.271 364.325 775.957 357.229 C 812.361 373.775 847.846 393.225 883.85 410.702 C 889.181 413.289 896.077 417.381 901.984 418.147 C 915.295 419.875 1066.22 420.282 1073.46 417.579 C 1073.93 417.403 1074.39 417.203 1074.86 417.021 C 1088.16 411.859 1100.92 404.554 1113.59 398.002 C 1134.27 387.318 1155.11 376.564 1175.11 364.66 C 1208.95 377.952 1255.82 404.765 1290.34 417.595 C 1296.36 419.833 1346.23 418.753 1356.78 418.89 C 1356.43 426.467 1356.66 432.364 1357 439.973 C 1389.34 453.916 1426.62 473.657 1459.19 488.806 L 1742.71 622.809 C 1699.43 647.392 1656.28 672.203 1613.27 697.243 C 1587.62 711.882 1555.74 728.399 1531.42 744.221 C 1537.99 753.477 1544.89 762.736 1551.92 771.65 C 1601.95 835.075 1654.22 897.236 1703.88 960.891 C 1688.77 968.887 1670.47 976.829 1654.81 984.143 L 1585.25 1017.2 C 1571.39 1023.82 1556.14 1030.73 1542.92 1038.26 C 1544.48 1086.94 1543.57 1141.11 1543.61 1190.14 C 1624.51 1191.96 1695.95 1218.33 1752.82 1277.43 C 1808.88 1335.55 1839.44 1413.65 1837.7 1494.38 C 1836.01 1573.67 1802.8 1649.01 1745.42 1703.74 C 1687.81 1758.82 1619.2 1785.16 1539.58 1783.18 C 1466.04 1780.81 1396.36 1749.64 1345.57 1696.4 C 1307.35 1655.95 1290.81 1624.2 1273.31 1571.96 C 1232.51 1590 1192.06 1610.51 1151.69 1629.59 C 1089.13 1658.79 1026.79 1688.45 964.656 1718.54 C 909.698 1690.96 853.859 1665.91 798.66 1639.06 L 403.798 1447.88 L 403.933 1044.68 C 383.548 1034.45 363.331 1025.44 342.796 1015.65 C 308.667 999.142 274.438 982.838 240.111 966.742 C 253.442 952.429 275.114 924.598 288.251 908.568 L 369.504 810.133 C 386.664 789.171 405.394 764.885 423.237 744.862 L 208.58 624.68 z" fill="rgb(34,45,78)" transform="translate(0,0)"></path>
<path d="M 1543.61 1190.14 C 1624.51 1191.96 1695.95 1218.33 1752.82 1277.43 C 1808.88 1335.55 1839.44 1413.65 1837.7 1494.38 C 1836.01 1573.67 1802.8 1649.01 1745.42 1703.74 C 1687.81 1758.82 1619.2 1785.16 1539.58 1783.18 C 1466.04 1780.81 1396.36 1749.64 1345.57 1696.4 C 1307.35 1655.95 1290.81 1624.2 1273.31 1571.96 C 1272.97 1568.54 1270.05 1558.94 1268.96 1555.09 C 1266.68 1547.35 1264.83 1534.4 1263.8 1526.06 C 1253.19 1446 1275.21 1365.03 1324.9 1301.36 C 1378.13 1233.73 1442.86 1201.71 1527.28 1191.42 C 1532.73 1191.07 1538.17 1190.64 1543.61 1190.14 z" fill="rgb(2,10,97)" transform="translate(0,0)"></path>
<path d="M 1535.67 1266.03 C 1657.69 1258.62 1762.67 1351.41 1770.29 1473.42 C 1777.91 1595.43 1685.29 1700.56 1563.3 1708.39 C 1441 1716.24 1335.56 1623.35 1327.92 1501.05 C 1320.28 1378.74 1413.35 1273.45 1535.67 1266.03 z" fill="rgb(242,237,227)" transform="translate(0,0)"></path>
<path d="M 1646.29 1374.09 C 1648.83 1376.05 1658.77 1386.71 1661.64 1389.67 C 1672.83 1401.43 1684.25 1412.96 1695.9 1424.25 C 1677.58 1445.48 1652.41 1470.24 1632.65 1491.09 L 1513.6 1616.88 C 1492.51 1596.84 1470.64 1578.99 1449.62 1559.27 C 1434.19 1545.27 1419.04 1530.97 1404.19 1516.36 L 1456.52 1463.82 C 1475.26 1483.95 1493.96 1505.45 1512.67 1525.91 C 1528.36 1509.77 1548.76 1484.8 1564.11 1467.21 L 1646.29 1374.09 z" fill="rgb(2,10,97)" transform="translate(0,0)"></path>
<path d="M 973.692 1025.84 C 992.048 1044.99 1016.87 1078.89 1034.86 1100.63 C 1069.18 1142.1 1105.72 1185.05 1138.55 1227.5 L 1431.86 1090.11 C 1463.57 1075.35 1495.1 1059.64 1527.09 1045.51 L 1527.28 1191.42 C 1442.86 1201.71 1378.13 1233.73 1324.9 1301.36 C 1275.21 1365.03 1253.19 1446 1263.8 1526.06 C 1264.83 1534.4 1266.68 1547.35 1268.96 1555.09 C 1258.5 1560.58 1244.17 1566.71 1233.23 1571.84 L 1182.59 1596.2 L 973.396 1694.93 C 972.336 1657.21 973.434 1613.4 973.362 1575.19 L 973.176 1313.02 L 973.201 1127.3 C 973.202 1095.79 972.049 1056.65 973.692 1025.84 z" fill="rgb(139,157,201)" transform="translate(0,0)"></path>
<path d="M 956.618 1027.79 C 957.743 1036.6 956.912 1078.45 956.925 1090.34 L 956.865 1234.57 L 956.684 1695.4 L 477.719 1465.02 C 459.554 1456.39 438.354 1445.2 419.998 1437.79 L 419.924 1052.1 C 523.466 1102.72 628.897 1150.09 732.588 1200.49 C 752.042 1209.95 772.275 1218.38 791.343 1228.58 C 808.911 1208.15 825.5 1186.67 842.582 1165.82 C 879.948 1119.28 917.964 1073.27 956.618 1027.79 z" fill="rgb(139,157,201)" transform="translate(0,0)"></path>
<path d="M 1517.57 756.812 C 1521.09 757.57 1664.77 939.258 1677.8 954.862 C 1660.83 964.415 1632.62 976.719 1614.44 985.247 L 1511.21 1034.18 L 1144.17 1207.34 L 1064.03 1109.32 C 1038.16 1077.33 1007.56 1038.45 980.506 1007.95 C 991.553 1001.65 1013.42 992.037 1025.51 986.321 L 1125.94 939.559 L 1352.71 832.33 C 1406.91 807.265 1464.14 782.678 1517.57 756.812 z" fill="rgb(139,157,201)" transform="translate(0,0)"></path>
<path d="M 434.325 757.568 C 438.529 758.774 463.533 771.682 469.537 774.67 C 493.672 786.648 517.916 798.404 542.266 809.937 L 838.423 953.303 C 874.972 970.743 914.49 991.339 951.508 1006.96 C 916.599 1048.71 881.991 1090.71 847.688 1132.96 C 828.309 1156.85 806.757 1184.44 786.344 1207.32 C 750.61 1189.78 714.602 1173.61 678.724 1156.54 L 266.754 961.226 C 284.129 939.398 303.687 916.731 321.502 895.019 L 434.325 757.568 z" fill="rgb(139,157,201)" transform="translate(0,0)"></path>
<path d="M 776.243 375.992 C 802.722 389.644 829.377 402.95 856.202 415.908 L 857.368 417.518 C 853.26 418.865 842.505 418.047 837.665 417.882 C 830.781 418.476 816.414 417.93 808.969 417.875 L 808.955 553.419 C 783.172 560.123 778.782 565.342 757.596 581.344 C 754.345 583.8 740.855 590.568 736.571 592.527 C 683.976 616.584 631.88 641.946 579.375 666.14 C 532.088 687.929 484.369 711.966 436.86 732.903 C 374.186 700.386 307.719 660.867 245.868 625.739 L 776.243 375.992 z" fill="rgb(139,157,201)" transform="translate(0,0)"></path>
<path d="M 825.042 434.979 L 1171.16 435.074 L 1275.91 435.066 C 1295.09 435.07 1321.6 434.341 1340.06 436.072 C 1340.25 563.098 1338.88 692.979 1340.62 819.82 C 1301.8 837.076 1261.35 857.321 1222.7 875.553 L 1204.94 884.258 C 1203.78 832.363 1204.65 777.27 1204.3 724.972 C 1230.48 724.747 1256.66 724.754 1282.84 724.995 C 1305.44 694.961 1315.2 680.218 1315.87 639.928 C 1316.4 608.209 1303.45 562.662 1266.29 556.026 C 1253 553.651 1230.17 555.027 1216.25 555.084 L 1131.28 555.272 L 825.267 555.447 L 825.042 434.979 z" fill="rgb(242,237,227)" transform="translate(0,0)"></path>
<path d="M 671.842 720.306 C 686.725 719.485 705.661 720.015 721.013 719.999 L 811.713 720.001 L 1065.38 720.699 C 1020.56 768.064 1023.69 823.546 1023.94 884.106 L 1023.98 969.255 L 995.037 982.904 C 986.029 986.766 976.24 991.679 967.314 995.919 C 955.06 991.041 940.068 983.509 927.89 977.746 L 837.301 933.993 C 791.607 912.628 746.147 890.768 700.929 868.416 C 673.42 855.14 640.733 840.183 614.168 825.898 C 615.763 786.842 623.072 727.128 671.842 720.306 z" fill="rgb(242,237,227)" transform="translate(0,0)"></path>
<path d="M 816.565 571.491 C 913.212 572.762 1010.48 571.058 1107.18 571.674 C 1145.88 571.921 1185.07 571.045 1223.73 571.894 C 1180.76 617.781 1187.92 698.057 1188.06 757.051 L 1187.78 891.983 C 1172.27 899.568 1045.68 960.6 1040.43 959.597 C 1039.79 927.987 1040.24 895.109 1040.32 863.464 C 1071.27 862.597 1105.28 863.971 1136.77 863.607 C 1162.13 826.009 1167.95 754.786 1134.65 719.763 C 1115.64 699.772 1091.69 703.767 1066.54 703.806 L 996.678 703.932 L 756.942 703.787 C 753.587 693.223 751.603 682.272 751.039 671.202 C 749.511 640.327 758.636 599.853 785.308 580.576 C 795.5 573.211 804.535 571.972 816.565 571.491 z" fill="rgb(242,237,227)" transform="translate(0,0)"></path>
<path d="M 1356.97 459.17 C 1474.05 510.9 1590.79 571.817 1707.76 624.31 C 1684.98 636.317 1661.81 650.03 1639.47 662.939 C 1599.08 686.455 1558.4 708.741 1518.03 732.407 C 1494.33 721.035 1471.01 708.936 1447.08 697.769 C 1416.98 683.722 1386.5 670.004 1356.96 654.85 C 1355.67 591.133 1356.91 523.162 1356.97 459.17 z" fill="rgb(139,157,201)" transform="translate(0,0)"></path>
<path d="M 742.593 606.943 C 745.082 610.541 740.451 619.177 739.073 625.777 C 733.331 653.295 733.422 675.4 739.372 702.986 C 704.876 703.819 656.944 696.874 632.629 721.31 C 604.603 749.477 600.585 782.061 599.706 819.266 C 565.838 803.957 533.428 787.441 499.927 771.96 C 483.274 764.352 462.031 753.805 446.024 745.155 C 464.836 738.897 496.511 723.057 515.606 714.079 C 553.302 696.792 590.799 679.073 628.089 660.927 C 657.721 646.738 687.726 633.317 717.466 619.354 C 725.928 615.381 734.484 611.612 742.593 606.943 z" fill="rgb(2,10,97)" transform="translate(0,0)"></path>
<path d="M 1357.01 672.088 C 1365.33 675.164 1388.52 688.171 1398.08 692.808 C 1433.03 709.754 1469.48 726.158 1504.09 743.608 C 1489.23 751.465 1474.15 758.924 1458.89 765.977 C 1423.94 781.312 1391.52 798.265 1356.91 813.661 C 1356.87 766.757 1356.41 718.915 1357.01 672.088 z" fill="rgb(2,10,97)" transform="translate(0,0)"></path>
<path d="M 1254.48 573.14 C 1286.43 570.265 1298.04 605.736 1299.11 631.467 C 1300.36 661.428 1294.48 685.58 1274.14 707.787 L 1249.5 707.96 L 1204.63 708.146 C 1203.8 664.36 1206.49 591.814 1254.48 573.14 z" fill="rgb(242,237,227)" transform="translate(0,0)"></path>
<path d="M 1097.92 722.178 C 1113.97 721.034 1126.14 730.803 1132.55 744.955 C 1146.72 776.252 1143.09 817.102 1127.25 847.08 C 1112.98 847.567 1097.94 847.425 1083.6 847.492 L 1040.9 847.367 C 1039.53 808.286 1051.54 732.913 1097.92 722.178 z" fill="rgb(242,237,227)" transform="translate(0,0)"></path>
<path d="M 1175.98 383.104 C 1181.97 386.502 1194.36 391.763 1200.97 394.875 C 1216.8 402.203 1232.46 409.873 1247.96 417.879 C 1226.14 418.192 1204.32 418.332 1182.5 418.302 C 1158.64 418.253 1134.78 418.37 1110.92 418.651 C 1133.03 406.645 1153.99 395.553 1175.98 383.104 z" fill="rgb(139,157,201)" transform="translate(0,0)"></path>
<metadata><recraft-signature>{"signed_by": "recraft", "signature_b64": "ESJbxWz0RYRwol6fe9MtKllPRmqrV4IYV9K0ytwsZ/Ht3YTMZ6W5Mc0BgeFX4f9RIYZj3gCJLuvs3lC0sCIgCg==", "signing_algo": "Ed25519", "generation_timestamp": 1784722605, "identifier": "ce7e3192-ec55-4be0-a02f-1dd5c954ed52"}</recraft-signature></metadata></svg>